<?xml version="1.0" encoding="utf-8"?>
<!-- Generator: Adobe Illustrator 18.1.1, SVG Export Plug-In . SVG Version: 6.00 Build 0)  -->
<svg version="1.1" id="Layer_1" fill="#31555C" xmlns="http://www.w3.org/2000/svg" xmlns:xlink="http://www.w3.org/1999/xlink" x="0px" y="0px"
	 viewBox="0 0 12 12" enable-background="new 0 0 12 12" xml:space="preserve">
<path d="M3.7,0.5C4.4,0.2,5.2,0,6,0s1.6,0.2,2.3,0.5s1.4,0.7,1.9,1.3s1,1.2,1.3,1.9S12,5.2,12,6s-0.2,1.6-0.5,2.3s-0.7,1.4-1.3,1.9
	s-1.2,1-1.9,1.3S6.8,12,6,12s-1.6-0.2-2.3-0.5s-1.4-0.7-1.9-1.3s-1-1.2-1.3-1.9S0,6.8,0,6s0.2-1.6,0.5-2.3s0.7-1.4,1.3-1.9
	S2.9,0.8,3.7,0.5z M3.8,11.1c0.7,0.3,1.4,0.4,2.2,0.4s1.5-0.1,2.2-0.4s1.3-0.7,1.8-1.2s0.9-1.1,1.2-1.8s0.4-1.4,0.4-2.2
	s-0.1-1.5-0.4-2.2s-0.7-1.3-1.2-1.8S8.9,1.2,8.2,0.9S6.8,0.4,6,0.4S4.5,0.6,3.8,0.9S2.6,1.6,2.1,2.1S1.2,3.1,0.9,3.8S0.4,5.2,0.4,6
	s0.1,1.5,0.4,2.2s0.7,1.3,1.2,1.8S3.1,10.8,3.8,11.1z M5.8,1.6c0,0,0.1-0.1,0.2-0.1s0.1,0,0.2,0.1s0.1,0.1,0.1,0.2V6
	c0,0.1,0,0.1-0.1,0.2S6.1,6.2,6,6.2H3.2c-0.1,0-0.1,0-0.2-0.1S3,6.1,3,6s0-0.1,0.1-0.2s0.1-0.1,0.2-0.1h2.6V1.7
	C5.8,1.7,5.8,1.6,5.8,1.6z"/>
</svg>
