<svg xmlns="http://www.w3.org/2000/svg" viewBox="0 0 114.7 99.1" enable-background="new 0 0 114.7 99.1"><g fill="#868A8D"><path d="M145.4 184.4c-1.3 5.4-4.3 9.1-10.2 9.1-6.5 0-11.1-4.8-11.1-15 0-9.5 4.1-15 11.1-15 5.4 0 8.6 3.1 9.8 8.5l-3 .9c-1-4.1-2.9-6.6-7.3-6.6-4.2 0-7.5 3.9-7.5 12.2 0 8.4 3.3 12.2 8.2 12.2 4.5 0 6.2-3.4 7.1-6.9l2.9.6zM164.2 188.6c-1.4 2.4-3.3 4.9-8.1 4.9-4.7 0-9.1-3.2-9.1-10.9 0-6.8 3.4-10.9 8.6-10.9 4.4 0 8 2.8 8 9.5v1.9H150c0 4.6 2.7 7.8 6.2 7.8 2.6 0 4.6-1.4 5.8-3.5l2.2 1.2zm-3.6-8c0-3.9-1.9-6.5-5-6.5-3.5 0-5.4 2.6-5.6 6.5h10.6zM169.6 172.1v2.8h.1c1.7-1.9 3.8-3.2 6.2-3.2 3.1 0 6.1 1.6 6.1 6.1v15.3h-2.9v-15.2c0-2.8-1.3-3.7-3.4-3.7-2.2 0-4.7 1.8-6 3.2v15.7h-2.9v-21h2.8zM187.3 172.1v-6.9h2.9v6.9h4.8v2.5h-4.8v14.9c0 1 .7 1.5 2.4 1.5 1 0 1.8-.1 2.6-.2v2.4c-.5.2-1.7.3-3.4.3-3.1 0-4.5-.8-4.5-3.5v-15.4h-3.4v-2.5h3.4zM198.6 172.1h2.9v4.2h.1c1.6-2.9 3.3-4.5 6.8-4.5v2.9c-3.6.1-5.5 2.5-6.9 6.8v11.6h-2.9v-21zM226.4 188.6c-1.4 2.4-3.3 4.9-8.1 4.9-4.7 0-9.1-3.2-9.1-10.9 0-6.8 3.4-10.9 8.6-10.9 4.4 0 8 2.8 8 9.5v1.9h-13.6c0 4.6 2.7 7.8 6.2 7.8 2.6 0 4.6-1.4 5.8-3.5l2.2 1.2zm-3.6-8c0-3.9-1.9-6.5-5-6.5-3.5 0-5.4 2.6-5.7 6.5h10.7zM241.5 193.1v-18.5h-3.6v-2.5h3.6v-2.4c0-5 1.7-6.2 5.1-6.2.8 0 1.7.1 2.6.2v2.6c-.7-.1-1.5-.3-2.1-.3-2 0-2.7.6-2.7 3v3.1h4.6v2.5h-4.6v18.5h-2.9zM257.9 193.5c-5.7 0-8.6-4.8-8.6-10.9 0-6.1 2.9-10.9 8.6-10.9 5.7 0 8.6 4.8 8.6 10.9 0 6-2.8 10.9-8.6 10.9zm0-19.3c-3.5 0-5.7 3-5.7 8.4s2.2 8.4 5.7 8.4 5.7-3 5.7-8.4-2.2-8.4-5.7-8.4zM270 172.1h2.9v4.2h.1c1.6-2.9 3.3-4.5 6.8-4.5v2.9c-3.6.1-5.5 2.5-6.9 6.8v11.6H270v-21zM140.4 217.5c-.7-2.8-3-5.1-6.8-5.1-3.4 0-5.4 1.6-5.4 4.5-.1 6.4 16.4 4.8 16.4 14.1 0 4.2-2.4 8.6-9.8 8.6-6.4 0-8.9-4.1-10.4-7.6l2.9-1c1.2 3.1 3.3 5.9 7.6 5.9s6.4-2.3 6.4-5.2c0-7.4-16.4-5.2-16.4-14.4 0-4.2 3.5-7.5 8.8-7.5 4.5 0 8.1 2.4 9.6 7.2l-2.9.5zM159.7 239.2v-2.8h-.1c-1.7 1.9-3.8 3.2-6.2 3.2-3.1 0-6.1-1.6-6.1-6.1v-15.3h2.9v15.2c0 2.8 1.3 3.7 3.4 3.7 2.2 0 4.7-1.8 6-3.2v-15.7h2.9v21h-2.8zM167.9 233.9c1.4 2 3.4 3.2 6 3.2 3.1 0 4.5-1.7 4.5-3.5 0-5.3-12.4-2.5-12.2-10.2.1-3.6 2.9-5.7 6.9-5.6 2.7 0 5.8 1.5 7.2 3.7l-2 1.8c-1.6-2-3.1-2.9-5.4-2.9-2.5 0-3.8 1.3-3.8 3.1 0 4.6 12.2 2.2 12.2 10 0 4.1-3.6 6.1-7.3 6.1-3.3 0-6.5-1.4-8.4-4l2.3-1.7zM185 218.2v-6.9h2.9v6.9h4.8v2.5H188v14.9c0 1 .7 1.5 2.4 1.5 1 0 1.8-.1 2.6-.2v2.4c-.5.2-1.7.3-3.4.3-3.1 0-4.5-.8-4.5-3.5v-15.4h-3.4v-2.5h3.3zM195 222.2c1.3-2.4 3.9-4.4 7.9-4.4 3.6 0 7.3 1.7 7.3 6.3v10.6c0 2.3.2 3.4.5 4.5h-3l-.3-2.9c-1.5 1.6-3.8 3.3-6.9 3.3-3.2 0-6-1.9-6-5.8 0-4.6 3.5-6.9 12.8-8.6v-1.1c0-2.8-1.8-3.8-4.3-3.8-3.2 0-4.8 1.9-5.4 3.3l-2.6-1.4zm12.2 5.7c-6.7 1.2-9.9 3.1-9.9 6 0 1.9 1.9 3.2 3.5 3.2 2.1 0 4.8-1.5 6.5-3.5v-5.7zM217.5 209.7v3.5h-2.9v-3.5h2.9zm-2.9 8.5h2.9v21h-2.9v-21zM225.7 218.2v2.8h.1c1.7-1.9 3.8-3.2 6.2-3.2 3.1 0 6.1 1.6 6.1 6.1v15.3h-2.9V224c0-2.8-1.3-3.7-3.4-3.7-2.2 0-4.7 1.8-6 3.2v15.7h-2.9v-21h2.8zM242.4 222.2c1.3-2.4 3.9-4.4 7.9-4.4 3.6 0 7.3 1.7 7.3 6.3v10.6c0 2.3.2 3.4.5 4.5h-3l-.3-2.9c-1.5 1.6-3.8 3.3-6.9 3.3-3.2 0-6-1.9-6-5.8 0-4.6 3.5-6.9 12.8-8.6v-1.1c0-2.8-1.8-3.8-4.3-3.8-3.2 0-4.8 1.9-5.4 3.3l-2.6-1.4zm12.2 5.7c-6.7 1.2-9.9 3.1-9.9 6 0 1.9 1.9 3.2 3.5 3.2 2.1 0 4.8-1.5 6.5-3.5v-5.7zM265.1 210.1v10.2l.2-.1c1.6-1.3 3.6-2.3 5.5-2.3 3.6 0 8.4 2.7 8.4 10.9 0 8.4-4.9 10.9-8.6 10.9-2.5 0-4.4-1-6.1-2.6l-.5 2.2h-2c.2-1.5.2-3.1.2-4.6v-24.5h2.9zm0 24.2c2.1 2 3.4 2.8 5.3 2.8 3.6 0 5.9-2.9 5.9-8.2 0-6.3-2.5-8.6-5.9-8.6-1.7 0-3.7 1.2-5.3 2.9v11.1zM286.5 209.7v3.5h-2.9v-3.5h2.9zm-2.9 8.5h2.9v21h-2.9v-21zM295.3 210.1v29.1h-2.9v-29.1h2.9zM303.3 209.7v3.5h-2.9v-3.5h2.9zm-2.9 8.5h2.9v21h-2.9v-21zM310 218.2v-6.9h2.9v6.9h4.8v2.5h-4.8v14.9c0 1 .7 1.5 2.4 1.5 1 0 1.8-.1 2.6-.2v2.4c-.5.2-1.7.3-3.4.3-3.1 0-4.5-.8-4.5-3.5v-15.4h-3.4v-2.5h3.4zM335.7 218.2l-7.4 22.8c-1.5 4.7-4.3 5.9-7.1 5.9-1 0-1.5-.2-2.1-.2v-2.4c.4 0 .9.1 1.6.1 1.8 0 4.5-.4 5.5-5l-7.3-21.2h3.1l5.7 16h.1l4.9-16h3zM126.7 285.3v-29.1h3.2v26.4h13.8v2.7h-17zM161.2 280.8c-1.4 2.4-3.3 4.9-8.1 4.9-4.7 0-9.1-3.2-9.1-10.9 0-6.8 3.4-10.9 8.6-10.9 4.4 0 8 2.8 8 9.5v1.9H147c0 4.6 2.7 7.8 6.2 7.8 2.6 0 4.6-1.4 5.8-3.6l2.2 1.3zm-3.6-7.9c0-3.9-1.9-6.5-5-6.5-3.5 0-5.4 2.6-5.7 6.5h10.7zM164 268.4c1.3-2.4 3.9-4.4 7.9-4.4 3.6 0 7.3 1.7 7.3 6.3v10.6c0 2.3.2 3.4.5 4.5h-3l-.3-2.9c-1.5 1.6-3.8 3.3-6.9 3.3-3.2 0-6-1.9-6-5.8 0-4.6 3.5-6.9 12.8-8.6v-1.1c0-2.8-1.8-3.8-4.3-3.8-3.2 0-4.8 1.9-5.4 3.3l-2.6-1.4zm12.3 5.6c-6.7 1.2-9.9 3.1-9.9 6 0 1.9 1.9 3.2 3.5 3.2 2.1 0 4.8-1.5 6.5-3.5V274zM199.2 256.2v24.5c0 1.5-.1 3.1.2 4.6h-2.7l-.4-2.1c-1 1.3-3 2.5-5.5 2.5-3.7 0-8.6-2.5-8.6-10.9 0-8.2 4.9-10.9 8.4-10.9 2 0 3.9 1 5.5 2.3l.2.1v-10.2h2.9zm-2.9 13.1c-1.6-1.7-3.6-2.9-5.3-2.9-3.4 0-5.9 2.2-5.9 8.6 0 5.3 2.3 8.2 5.9 8.2 1.9 0 3.2-.8 5.3-2.8v-11.1zM219.1 280.8c-1.4 2.4-3.3 4.9-8.1 4.9-4.7 0-9.1-3.2-9.1-10.9 0-6.8 3.4-10.9 8.6-10.9 4.4 0 8 2.8 8 9.5v1.9h-13.6c0 4.6 2.7 7.8 6.2 7.8 2.6 0 4.6-1.4 5.8-3.6l2.2 1.3zm-3.6-7.9c0-3.9-1.9-6.5-5-6.5-3.5 0-5.4 2.6-5.6 6.5h10.6zM221.7 264.3h2.9v4.2h.1c1.6-2.9 3.3-4.5 6.8-4.5v2.9c-3.6.1-5.5 2.5-6.9 6.8v11.6h-2.9v-21zM234.7 280c1.4 2 3.4 3.2 6 3.2 3.1 0 4.5-1.7 4.5-3.5 0-5.3-12.4-2.5-12.2-10.2.1-3.6 2.9-5.7 6.9-5.6 2.7 0 5.8 1.5 7.2 3.7l-2 1.8c-1.6-2-3.1-2.9-5.4-2.9-2.5 0-3.8 1.3-3.8 3.1 0 4.6 12.2 2.2 12.2 10 0 4.1-3.6 6.1-7.3 6.1-3.3 0-6.5-1.4-8.4-4l2.3-1.7zM254.3 256.2v11h.1c1.7-1.9 3.8-3.2 6.2-3.2 3.1 0 6.1 1.6 6.1 6.1v15.3h-2.9v-15.2c0-2.8-1.3-3.7-3.4-3.7-2.2 0-4.7 1.8-6 3.2v15.7h-2.9v-29.1h2.8zM274 255.8v3.5h-2.9v-3.5h2.9zm-2.9 8.5h2.9v21h-2.9v-21zM278.5 293.1v-28.7h2.9v2.5h.1c1.1-1.6 3.4-2.9 5.4-2.9 3.7 0 8.6 2.5 8.6 10.9 0 8.2-4.9 10.9-8.4 10.9-2 0-3.9-1-5.5-2.3l-.2-.1v9.8h-2.9zm2.9-12.8c1.6 1.7 3.6 2.9 5.3 2.9 3.4 0 5.9-2.2 5.9-8.6 0-5.3-2.3-8.2-5.9-8.2-1.9 0-3.2.8-5.3 2.8v11.1z"/></g><path fill="#D4E48F" d="M38.6 61.4L4.2 6.8C2.9 4.7.1 4-2 5.4L-7.8 9c-2.1 1.3-2.7 4.1-1.4 6.2l28.6 45.4L36 67.2l2.6-5.8zM40.9 94.7l46.6 74c1.3 2.1 4.1 2.7 6.2 1.4l5.8-3.7c2.1-1.3 2.7-4.1 1.4-6.2L58.8 93.4l-14.6-5.8-3.3 7.1z"/><path fill="#B5E0DC" d="M63.1 45.9L79.9 9.1c1-2.2 0-4.9-2.2-5.9L71.5.4c-2.2-1-4.9 0-5.9 2.2l-27 58.8 2.7 4.3 21.8-19.8zM16.8 109.3l-32.9 72.2c-1 2.2 0 4.9 2.2 5.9l6.2 2.8c2.2 1 4.9 0 5.9-2.2l42.6-93.4-2.8-4.5-21.2 19.2z"/><path fill="#9BCF85" d="M38.5 68.2l2.8-2.5-2.7-4.3-2.6 5.8zM41.8 86.6L38 90.1l2.9 4.6 3.2-7.2z"/><path fill="#F37043" d="M19.4 60.7l-49.9-19.9c-2.3-.9-4.9.2-5.8 2.5l-2.5 6.4c-.9 2.3.2 4.9 2.5 5.8l61.8 24.6 4-3.6-10.1-15.8zM170.2 120.7L54.9 74.8l-5 4.5 8.9 14.1 105.6 42.1c2.3.9 4.9-.2 5.8-2.5l2.5-6.4c.9-2.4-.2-5-2.5-5.9z"/><path fill="#CE6B38" d="M33.4 72.8l2.6-5.6-16.6-6.5 10 15.8zM46.5 82.4l-2.4 5.1 14.7 5.9-8.9-14.1z"/><path fill="#A3653C" d="M36 67.2l-2.6 5.6 5.1-4.6zM44.1 87.5l2.4-5.1-4.7 4.2z"/><path fill="#00849C" d="M54.9 74.8l48.8-44.3c1.8-1.7 2-4.5.3-6.3L99.4 19c-1.7-1.8-4.5-2-6.3-.3l-30 27.2-12.4 27.2 4.2 1.7zM25.4 80.1L-24 124.9c-1.8 1.7-2 4.5-.3 6.3l4.6 5.1c1.7 1.8 4.5 2 6.3.3l30.1-27.3 12.6-27.7-3.9-1.5z"/><path fill="#00848E" d="M33.8 83.4l-4.4-1.7-12.6 27.6L38 90.1zM44.4 70.6l6.3 2.5 12.4-27.2-21.8 19.8z"/><path fill="#008266" d="M38 90.1l3.8-3.5-8-3.2zM41.3 65.7l-2.8 2.5 5.9 2.4z"/><path fill="#244E47" d="M30.8 78.6l-1.4-2.1-4 3.6 4 1.6 4.4 1.7zM50.7 73.1l-6.3-2.5 4.3 6.8 1.2 1.9 5-4.5z"/><path fill="#254E40" d="M48.7 77.4l-4.3-6.8-5.9-2.4-5.1 4.6-4 3.7 1.4 2.1 3 4.8 8 3.2 4.7-4.2 3.4-3.1z"/></svg>