<svg xmlns="http://www.w3.org/2000/svg" viewBox="0 0 383 303" enable-background="new 0 0 383 303"><g fill="#868A8D"><path d="M188.8 189c-1.3 5.4-4.3 9.1-10.2 9.1-6.5 0-11.1-4.8-11.1-15 0-9.5 4.1-15 11.1-15 5.4 0 8.6 3.1 9.8 8.5l-3 .9c-1-4.1-2.9-6.6-7.3-6.6-4.2 0-7.5 3.9-7.5 12.2 0 8.4 3.3 12.2 8.2 12.2 4.5 0 6.2-3.4 7.1-6.9l2.9.6zM207.5 193.2c-1.4 2.4-3.3 4.9-8.1 4.9-4.7 0-9.1-3.2-9.1-10.9 0-6.8 3.4-10.9 8.6-10.9 4.4 0 8 2.8 8 9.5v1.9h-13.6c0 4.6 2.7 7.8 6.2 7.8 2.6 0 4.6-1.4 5.8-3.5l2.2 1.2zm-3.5-7.9c0-3.9-1.9-6.5-5-6.5-3.5 0-5.4 2.6-5.6 6.5H204zM213 176.7v2.8h.1c1.7-1.9 3.8-3.2 6.2-3.2 3.1 0 6.1 1.6 6.1 6.1v15.3h-2.9v-15.2c0-2.8-1.3-3.7-3.4-3.7-2.2 0-4.7 1.8-6 3.2v15.7h-2.9v-21h2.8zM230.6 176.7v-6.9h2.9v6.9h4.8v2.5h-4.8v14.9c0 1 .7 1.5 2.4 1.5 1 0 1.8-.1 2.6-.2v2.4c-.5.2-1.7.3-3.4.3-3.1 0-4.5-.8-4.5-3.5v-15.4h-3.4v-2.5h3.4zM241.9 176.7h2.9v4.2h.1c1.6-2.9 3.3-4.5 6.8-4.5v2.9c-3.6.1-5.5 2.5-6.9 6.8v11.6h-2.9v-21zM269.7 193.2c-1.4 2.4-3.3 4.9-8.1 4.9-4.7 0-9.1-3.2-9.1-10.9 0-6.8 3.4-10.9 8.6-10.9 4.4 0 8 2.8 8 9.5v1.9h-13.6c0 4.6 2.7 7.8 6.2 7.8 2.6 0 4.6-1.4 5.8-3.5l2.2 1.2zm-3.5-7.9c0-3.9-1.9-6.5-5-6.5-3.5 0-5.4 2.6-5.7 6.5h10.7zM284.8 197.7v-18.5h-3.6v-2.5h3.6v-2.4c0-5 1.7-6.2 5.1-6.2.8 0 1.7.1 2.6.2v2.6c-.7-.1-1.5-.3-2.1-.3-2 0-2.7.6-2.7 3v3.1h4.6v2.5h-4.6v18.5h-2.9zM301.3 198.1c-5.7 0-8.6-4.8-8.6-10.9 0-6.1 2.9-10.9 8.6-10.9 5.7 0 8.6 4.8 8.6 10.9-.1 6.1-2.9 10.9-8.6 10.9zm0-19.3c-3.5 0-5.7 3-5.7 8.4s2.2 8.4 5.7 8.4 5.7-3 5.7-8.4c-.1-5.4-2.3-8.4-5.7-8.4zM313.4 176.7h2.9v4.2h.1c1.6-2.9 3.3-4.5 6.8-4.5v2.9c-3.6.1-5.5 2.5-6.9 6.8v11.6h-2.9v-21zM183.8 222.1c-.7-2.8-3-5.1-6.8-5.1-3.4 0-5.4 1.6-5.4 4.5-.1 6.4 16.4 4.8 16.4 14.1 0 4.2-2.4 8.6-9.8 8.6-6.4 0-8.9-4.1-10.4-7.6l2.9-1c1.2 3.1 3.3 5.9 7.6 5.9s6.4-2.3 6.4-5.2c0-7.4-16.4-5.2-16.4-14.4 0-4.2 3.5-7.5 8.8-7.5 4.5 0 8.1 2.4 9.6 7.2l-2.9.5zM203 243.8V241c-1.7 1.9-3.8 3.2-6.2 3.2-3.1 0-6.1-1.6-6.1-6.1v-15.3h2.9V238c0 2.8 1.3 3.7 3.4 3.7 2.2 0 4.7-1.8 6-3.2v-15.7h2.9v21H203zM211.2 238.5c1.4 2 3.4 3.2 6 3.2 3.1 0 4.5-1.7 4.5-3.5 0-5.3-12.4-2.5-12.2-10.2.1-3.6 2.9-5.7 6.9-5.6 2.7 0 5.8 1.5 7.2 3.7l-2 1.8c-1.6-2-3.1-2.9-5.4-2.9-2.5 0-3.8 1.3-3.8 3.1 0 4.6 12.2 2.2 12.2 10 0 4.1-3.6 6.1-7.3 6.1-3.3 0-6.5-1.4-8.4-4l2.3-1.7zM228.4 222.9V216h2.9v6.9h4.8v2.5h-4.8v14.9c0 1 .7 1.5 2.4 1.5 1 0 1.8-.1 2.6-.2v2.4c-.5.2-1.7.3-3.4.3-3.1 0-4.5-.8-4.5-3.5v-15.4H225v-2.5h3.4zM238.3 226.9c1.3-2.4 3.9-4.4 7.9-4.4 3.6 0 7.3 1.7 7.3 6.3v10.6c0 2.3.2 3.4.5 4.5h-3l-.3-2.9c-1.5 1.6-3.8 3.3-6.9 3.3-3.2 0-6-1.9-6-5.8 0-4.6 3.5-6.9 12.8-8.6v-1.1c0-2.8-1.8-3.8-4.3-3.8-3.2 0-4.8 1.9-5.4 3.3l-2.6-1.4zm12.3 5.6c-6.7 1.2-9.9 3.1-9.9 6 0 1.9 1.9 3.2 3.5 3.2 2.1 0 4.8-1.5 6.5-3.5v-5.7zM260.8 214.3v3.5h-2.9v-3.5h2.9zm-2.9 8.6h2.9v21h-2.9v-21zM269.1 222.9v2.8h.1c1.7-1.9 3.8-3.2 6.2-3.2 3.1 0 6.1 1.6 6.1 6.1v15.3h-2.9v-15.2c0-2.8-1.3-3.7-3.4-3.7-2.2 0-4.7 1.8-6 3.2v15.7h-2.9v-21h2.8zM285.7 226.9c1.3-2.4 3.9-4.4 7.9-4.4 3.6 0 7.3 1.7 7.3 6.3v10.6c0 2.3.2 3.4.5 4.5h-3l-.3-2.9c-1.5 1.6-3.8 3.3-6.9 3.3-3.2 0-6-1.9-6-5.8 0-4.6 3.5-6.9 12.8-8.6v-1.1c0-2.8-1.8-3.8-4.3-3.8-3.2 0-4.8 1.9-5.4 3.3l-2.6-1.4zm12.2 5.6c-6.7 1.2-9.9 3.1-9.9 6 0 1.9 1.9 3.2 3.5 3.2 2.1 0 4.8-1.5 6.5-3.5v-5.7zM308.4 214.7v10.2l.2-.1c1.6-1.3 3.6-2.3 5.5-2.3 3.6 0 8.4 2.7 8.4 10.9 0 8.4-4.9 10.9-8.6 10.9-2.5 0-4.4-1-6.1-2.6l-.5 2.2h-2c.2-1.5.2-3.1.2-4.6v-24.5h2.9zm0 24.2c2.1 2 3.4 2.8 5.3 2.8 3.6 0 5.9-2.9 5.9-8.2 0-6.3-2.5-8.6-5.9-8.6-1.7 0-3.7 1.2-5.3 2.9v11.1zM329.8 214.3v3.5h-2.9v-3.5h2.9zm-2.9 8.6h2.9v21h-2.9v-21zM338.6 214.7v29.1h-2.9v-29.1h2.9zM346.6 214.3v3.5h-2.9v-3.5h2.9zm-2.9 8.6h2.9v21h-2.9v-21zM353.3 222.9V216h2.9v6.9h4.8v2.5h-4.8v14.9c0 1 .7 1.5 2.4 1.5 1 0 1.8-.1 2.6-.2v2.4c-.5.2-1.7.3-3.4.3-3.1 0-4.5-.8-4.5-3.5v-15.4h-3.4v-2.5h3.4zM379 222.9l-7.4 22.8c-1.5 4.7-4.3 5.9-7.1 5.9-1 0-1.5-.2-2.1-.2V249c.4 0 .9.1 1.6.1 1.8 0 4.5-.4 5.5-5l-7.3-21.2h3.1l5.7 16h.1l4.9-16h3zM170 290v-29.1h3.2v26.4H187v2.7h-17zM204.5 285.5c-1.4 2.4-3.3 4.9-8.1 4.9-4.7 0-9.1-3.2-9.1-10.9 0-6.8 3.4-10.9 8.6-10.9 4.4 0 8 2.8 8 9.5v1.9h-13.6c0 4.6 2.7 7.8 6.2 7.8 2.6 0 4.6-1.4 5.8-3.6l2.2 1.3zm-3.6-8c0-3.9-1.9-6.5-5-6.5-3.5 0-5.4 2.6-5.7 6.5h10.7zM207.4 273c1.3-2.4 3.9-4.4 7.9-4.4 3.6 0 7.3 1.7 7.3 6.3v10.6c0 2.3.2 3.4.5 4.5h-3l-.3-2.9c-1.5 1.6-3.8 3.3-6.9 3.3-3.2 0-6-1.9-6-5.8 0-4.6 3.5-6.9 12.8-8.6v-1.1c0-2.8-1.8-3.8-4.3-3.8-3.2 0-4.8 1.9-5.4 3.3l-2.6-1.4zm12.2 5.6c-6.7 1.2-9.9 3.1-9.9 6 0 1.9 1.9 3.2 3.5 3.2 2.1 0 4.8-1.5 6.5-3.5v-5.7zM242.5 260.8v24.5c0 1.5-.1 3.1.2 4.6H240l-.4-2.1c-1 1.3-3 2.5-5.5 2.5-3.7 0-8.6-2.5-8.6-10.9 0-8.2 4.9-10.9 8.4-10.9 2 0 3.9 1 5.5 2.3l.2.1v-10.2h2.9zm-2.9 13.2c-1.6-1.7-3.6-2.9-5.3-2.9-3.4 0-5.9 2.2-5.9 8.6 0 5.3 2.3 8.2 5.9 8.2 1.9 0 3.2-.8 5.3-2.8V274zM262.4 285.5c-1.4 2.4-3.3 4.9-8.1 4.9-4.7 0-9.1-3.2-9.1-10.9 0-6.8 3.4-10.9 8.6-10.9 4.4 0 8 2.8 8 9.5v1.9h-13.6c0 4.6 2.7 7.8 6.2 7.8 2.6 0 4.6-1.4 5.8-3.6l2.2 1.3zm-3.5-8c0-3.9-1.9-6.5-5-6.5-3.5 0-5.4 2.6-5.6 6.5h10.6zM265 269h2.9v4.2h.1c1.6-2.9 3.3-4.5 6.8-4.5v2.9c-3.6.1-5.5 2.5-6.9 6.8V290H265v-21zM278.1 284.6c1.4 2 3.4 3.2 6 3.2 3.1 0 4.5-1.7 4.5-3.5 0-5.3-12.4-2.5-12.2-10.2.1-3.6 2.9-5.7 6.9-5.6 2.7 0 5.8 1.5 7.2 3.7l-2 1.8c-1.6-2-3.1-2.9-5.4-2.9-2.5 0-3.8 1.3-3.8 3.1 0 4.6 12.2 2.2 12.2 10 0 4.1-3.6 6.1-7.3 6.1-3.3 0-6.5-1.4-8.4-4l2.3-1.7zM297.6 260.8v11h.1c1.7-1.9 3.8-3.2 6.2-3.2 3.1 0 6.1 1.6 6.1 6.1V290h-3v-15.2c0-2.8-1.3-3.7-3.4-3.7-2.2 0-4.7 1.8-6 3.2V290h-2.9v-29.1h2.9zM317.3 260.4v3.5h-2.9v-3.5h2.9zm-2.9 8.6h2.9v21h-2.9v-21zM321.8 297.7V269h2.9v2.5h.1c1.1-1.6 3.4-2.9 5.4-2.9 3.7 0 8.6 2.5 8.6 10.9 0 8.2-4.9 10.9-8.4 10.9-2 0-3.9-1-5.5-2.3l-.2-.1v9.8h-2.9zm2.9-12.7c1.6 1.7 3.6 2.9 5.3 2.9 3.4 0 5.9-2.2 5.9-8.6 0-5.3-2.3-8.2-5.9-8.2-1.9 0-3.2.8-5.3 2.8V285z"/></g><path fill="#D4E48F" d="M82 66.1L47.5 11.4c-1.3-2.1-4.1-2.7-6.2-1.4l-5.8 3.7c-2.1 1.3-2.7 4.1-1.4 6.2l28.6 45.4 16.5 6.6 2.8-5.8zM84.2 99.3l46.6 74c1.3 2.1 4.1 2.7 6.2 1.4l5.8-3.7c2.1-1.3 2.7-4.1 1.4-6.2L102.1 98l-14.6-5.8-3.3 7.1z"/><path fill="#B5E0DC" d="M106.4 50.5l16.8-36.8c1-2.2 0-4.9-2.2-5.9L114.7 5c-2.2-1-4.9 0-5.9 2.2L82 66.1l2.7 4.3 21.7-19.9zM60.1 114l-32.9 72.2c-1 2.2 0 4.9 2.2 5.9l6.2 2.8c2.2 1 4.9 0 5.9-2.2l42.6-93.4-2.9-4.6L60.1 114z"/><path fill="#9BCF85" d="M81.8 72.9l2.8-2.6-2.6-4.2-2.7 5.8zM85.1 91.3l-3.8 3.4 2.9 4.6 3.3-7.1z"/><path fill="#F37043" d="M62.8 65.3L12.9 45.4c-2.3-.9-4.9.2-5.8 2.5l-2.5 6.4c-.9 2.3.2 4.9 2.5 5.8l61.8 24.6 4-3.6-10.1-15.8zM213.5 125.3L98.2 79.4l-5 4.5 8.9 14.1 105.6 42.1c2.3.9 4.9-.2 5.8-2.5l2.5-6.4c1-2.3-.2-4.9-2.5-5.9z"/><path fill="#CE6B38" d="M76.8 77.5l2.5-5.6-16.5-6.6 9.9 15.8zM89.8 87l-2.3 5.2 14.6 5.8-8.9-14.1z"/><path fill="#A3653C" d="M79.3 71.9l-2.5 5.6 5-4.6zM87.5 92.2l2.3-5.2-4.7 4.3z"/><path fill="#00849C" d="M98.2 79.4L147 35.1c1.8-1.7 2-4.5.3-6.3l-4.6-5.1c-1.7-1.8-4.5-2-6.3-.3l-29.9 27.2L94 77.7l4.2 1.7zM68.8 84.7l-49.4 44.8c-1.8 1.7-2 4.5-.3 6.3l4.6 5.1c1.7 1.8 4.5 2 6.3.3L60.1 114l12.6-27.7-3.9-1.6z"/><path fill="#00848E" d="M77.1 88.1l-4.4-1.8L60.1 114l21.2-19.3zM87.7 75.2l6.3 2.5 12.4-27.2-21.8 19.8z"/><path fill="#008266" d="M81.3 94.7l3.8-3.4-8-3.2zM84.6 70.3l-2.8 2.6 5.9 2.3z"/><path fill="#244E47" d="M74.1 83.3l-1.4-2.2-3.9 3.6 3.9 1.6 4.4 1.8zM94 77.7l-6.3-2.5 4.4 6.9 1.1 1.8 5-4.5z"/><path fill="#254E40" d="M92.1 82.1l-4.4-6.9-5.9-2.3-5 4.6-4.1 3.6 1.4 2.2 3 4.8 8 3.2 4.7-4.3 3.4-3.1z"/></svg>