<?xml version="1.0" encoding="utf-8"?>
<!-- Generator: Adobe Illustrator 18.1.1, SVG Export Plug-In . SVG Version: 6.00 Build 0)  -->
<svg version="1.1" id="Layer_1" xmlns="http://www.w3.org/2000/svg" xmlns:xlink="http://www.w3.org/1999/xlink" x="0px" y="0px"
	 viewBox="0 0 383 303" enable-background="new 0 0 383 303" xml:space="preserve">
<g>
	<path fill="#868A8D" d="M188.8,189c-1.3,5.4-4.3,9.1-10.2,9.1c-6.5,0-11.1-4.8-11.1-15c0-9.5,4.1-15,11.1-15c5.4,0,8.6,3.1,9.8,8.5
		l-3,0.9c-1-4.1-2.9-6.6-7.3-6.6c-4.2,0-7.5,3.9-7.5,12.2c0,8.4,3.3,12.2,8.2,12.2c4.5,0,6.2-3.4,7.1-6.9L188.8,189z"/>
	<path fill="#868A8D" d="M207.5,193.2c-1.4,2.4-3.3,4.9-8.1,4.9c-4.7,0-9.1-3.2-9.1-10.9c0-6.8,3.4-10.9,8.6-10.9c4.4,0,8,2.8,8,9.5
		v1.9h-13.6c0,4.6,2.7,7.8,6.2,7.8c2.6,0,4.6-1.4,5.8-3.5L207.5,193.2z M204,185.3c0-3.9-1.9-6.5-5-6.5c-3.5,0-5.4,2.6-5.6,6.5H204z
		"/>
	<path fill="#868A8D" d="M213,176.7v2.8h0.1c1.7-1.9,3.8-3.2,6.2-3.2c3.1,0,6.1,1.6,6.1,6.1v15.3h-2.9v-15.2c0-2.8-1.3-3.7-3.4-3.7
		c-2.2,0-4.7,1.8-6,3.2v15.7h-2.9v-21H213z"/>
	<path fill="#868A8D" d="M230.6,176.7v-6.9h2.9v6.9h4.8v2.5h-4.8v14.9c0,1,0.7,1.5,2.4,1.5c1,0,1.8-0.1,2.6-0.2v2.4
		c-0.5,0.2-1.7,0.3-3.4,0.3c-3.1,0-4.5-0.8-4.5-3.5v-15.4h-3.4v-2.5H230.6z"/>
	<path fill="#868A8D" d="M241.9,176.7h2.9v4.2h0.1c1.6-2.9,3.3-4.5,6.8-4.5v2.9c-3.6,0.1-5.5,2.5-6.9,6.8v11.6h-2.9V176.7z"/>
	<path fill="#868A8D" d="M269.7,193.2c-1.4,2.4-3.3,4.9-8.1,4.9c-4.7,0-9.1-3.2-9.1-10.9c0-6.8,3.4-10.9,8.6-10.9c4.4,0,8,2.8,8,9.5
		v1.9h-13.6c0,4.6,2.7,7.8,6.2,7.8c2.6,0,4.6-1.4,5.8-3.5L269.7,193.2z M266.2,185.3c0-3.9-1.9-6.5-5-6.5c-3.5,0-5.4,2.6-5.7,6.5
		H266.2z"/>
	<path fill="#868A8D" d="M284.8,197.7v-18.5h-3.6v-2.5h3.6v-2.4c0-5,1.7-6.2,5.1-6.2c0.8,0,1.7,0.1,2.6,0.2v2.6
		c-0.7-0.1-1.5-0.3-2.1-0.3c-2,0-2.7,0.6-2.7,3v3.1h4.6v2.5h-4.6v18.5H284.8z"/>
	<path fill="#868A8D" d="M301.3,198.1c-5.7,0-8.6-4.8-8.6-10.9c0-6.1,2.9-10.9,8.6-10.9c5.7,0,8.6,4.8,8.6,10.9
		C309.8,193.3,307,198.1,301.3,198.1z M301.3,178.8c-3.5,0-5.7,3-5.7,8.4c0,5.4,2.2,8.4,5.7,8.4s5.7-3,5.7-8.4
		C306.9,181.8,304.7,178.8,301.3,178.8z"/>
	<path fill="#868A8D" d="M313.4,176.7h2.9v4.2h0.1c1.6-2.9,3.3-4.5,6.8-4.5v2.9c-3.6,0.1-5.5,2.5-6.9,6.8v11.6h-2.9V176.7z"/>
	<path fill="#868A8D" d="M183.8,222.1c-0.7-2.8-3-5.1-6.8-5.1c-3.4,0-5.4,1.6-5.4,4.5c-0.1,6.4,16.4,4.8,16.4,14.1
		c0,4.2-2.4,8.6-9.8,8.6c-6.4,0-8.9-4.1-10.4-7.6l2.9-1c1.2,3.1,3.3,5.9,7.6,5.9c4.3,0,6.4-2.3,6.4-5.2c0-7.4-16.4-5.2-16.4-14.4
		c0-4.2,3.5-7.5,8.8-7.5c4.5,0,8.1,2.4,9.6,7.2L183.8,222.1z"/>
	<path fill="#868A8D" d="M203,243.8V241H203c-1.7,1.9-3.8,3.2-6.2,3.2c-3.1,0-6.1-1.6-6.1-6.1v-15.3h2.9V238c0,2.8,1.3,3.7,3.4,3.7
		c2.2,0,4.7-1.8,6-3.2v-15.7h2.9v21H203z"/>
	<path fill="#868A8D" d="M211.2,238.5c1.4,2,3.4,3.2,6,3.2c3.1,0,4.5-1.7,4.5-3.5c0-5.3-12.4-2.5-12.2-10.2c0.1-3.6,2.9-5.7,6.9-5.6
		c2.7,0,5.8,1.5,7.2,3.7l-2,1.8c-1.6-2-3.1-2.9-5.4-2.9c-2.5,0-3.8,1.3-3.8,3.1c0,4.6,12.2,2.2,12.2,10c0,4.1-3.6,6.1-7.3,6.1
		c-3.3,0-6.5-1.4-8.4-4L211.2,238.5z"/>
	<path fill="#868A8D" d="M228.4,222.9V216h2.9v6.9h4.8v2.5h-4.8v14.9c0,1,0.7,1.5,2.4,1.5c1,0,1.8-0.1,2.6-0.2v2.4
		c-0.5,0.2-1.7,0.3-3.4,0.3c-3.1,0-4.5-0.8-4.5-3.5v-15.4h-3.4v-2.5H228.4z"/>
	<path fill="#868A8D" d="M238.3,226.9c1.3-2.4,3.9-4.4,7.9-4.4c3.6,0,7.3,1.7,7.3,6.3v10.6c0,2.3,0.2,3.4,0.5,4.5h-3l-0.3-2.9
		c-1.5,1.6-3.8,3.3-6.9,3.3c-3.2,0-6-1.9-6-5.8c0-4.6,3.5-6.9,12.8-8.6v-1.1c0-2.8-1.8-3.8-4.3-3.8c-3.2,0-4.8,1.9-5.4,3.3
		L238.3,226.9z M250.6,232.5c-6.7,1.2-9.9,3.1-9.9,6c0,1.9,1.9,3.2,3.5,3.2c2.1,0,4.8-1.5,6.5-3.5V232.5z"/>
	<path fill="#868A8D" d="M260.8,214.3v3.5h-2.9v-3.5H260.8z M257.9,222.9h2.9v21h-2.9V222.9z"/>
	<path fill="#868A8D" d="M269.1,222.9v2.8h0.1c1.7-1.9,3.8-3.2,6.2-3.2c3.1,0,6.1,1.6,6.1,6.1v15.3h-2.9v-15.2
		c0-2.8-1.3-3.7-3.4-3.7c-2.2,0-4.7,1.8-6,3.2v15.7h-2.9v-21H269.1z"/>
	<path fill="#868A8D" d="M285.7,226.9c1.3-2.4,3.9-4.4,7.9-4.4c3.6,0,7.3,1.7,7.3,6.3v10.6c0,2.3,0.2,3.4,0.5,4.5h-3l-0.3-2.9
		c-1.5,1.6-3.8,3.3-6.9,3.3c-3.2,0-6-1.9-6-5.8c0-4.6,3.5-6.9,12.8-8.6v-1.1c0-2.8-1.8-3.8-4.3-3.8c-3.2,0-4.8,1.9-5.4,3.3
		L285.7,226.9z M297.9,232.5c-6.7,1.2-9.9,3.1-9.9,6c0,1.9,1.9,3.2,3.5,3.2c2.1,0,4.8-1.5,6.5-3.5V232.5z"/>
	<path fill="#868A8D" d="M308.4,214.7v10.2l0.2-0.1c1.6-1.3,3.6-2.3,5.5-2.3c3.6,0,8.4,2.7,8.4,10.9c0,8.4-4.9,10.9-8.6,10.9
		c-2.5,0-4.4-1-6.1-2.6l-0.5,2.2h-2c0.2-1.5,0.2-3.1,0.2-4.6v-24.5H308.4z M308.4,238.9c2.1,2,3.4,2.8,5.3,2.8
		c3.6,0,5.9-2.9,5.9-8.2c0-6.3-2.5-8.6-5.9-8.6c-1.7,0-3.7,1.2-5.3,2.9V238.9z"/>
	<path fill="#868A8D" d="M329.8,214.3v3.5h-2.9v-3.5H329.8z M326.9,222.9h2.9v21h-2.9V222.9z"/>
	<path fill="#868A8D" d="M338.6,214.7v29.1h-2.9v-29.1H338.6z"/>
	<path fill="#868A8D" d="M346.6,214.3v3.5h-2.9v-3.5H346.6z M343.7,222.9h2.9v21h-2.9V222.9z"/>
	<path fill="#868A8D" d="M353.3,222.9V216h2.9v6.9h4.8v2.5h-4.8v14.9c0,1,0.7,1.5,2.4,1.5c1,0,1.8-0.1,2.6-0.2v2.4
		c-0.5,0.2-1.7,0.3-3.4,0.3c-3.1,0-4.5-0.8-4.5-3.5v-15.4h-3.4v-2.5H353.3z"/>
	<path fill="#868A8D" d="M379,222.9l-7.4,22.8c-1.5,4.7-4.3,5.9-7.1,5.9c-1,0-1.5-0.2-2.1-0.2V249c0.4,0,0.9,0.1,1.6,0.1
		c1.8,0,4.5-0.4,5.5-5l-7.3-21.2h3.1l5.7,16h0.1l4.9-16H379z"/>
	<path fill="#868A8D" d="M170,290v-29.1h3.2v26.4h13.8v2.7H170z"/>
	<path fill="#868A8D" d="M204.5,285.5c-1.4,2.4-3.3,4.9-8.1,4.9c-4.7,0-9.1-3.2-9.1-10.9c0-6.8,3.4-10.9,8.6-10.9c4.4,0,8,2.8,8,9.5
		v1.9h-13.6c0,4.6,2.7,7.8,6.2,7.8c2.6,0,4.6-1.4,5.8-3.6L204.5,285.5z M200.9,277.5c0-3.9-1.9-6.5-5-6.5c-3.5,0-5.4,2.6-5.7,6.5
		H200.9z"/>
	<path fill="#868A8D" d="M207.4,273c1.3-2.4,3.9-4.4,7.9-4.4c3.6,0,7.3,1.7,7.3,6.3v10.6c0,2.3,0.2,3.4,0.5,4.5h-3l-0.3-2.9
		c-1.5,1.6-3.8,3.3-6.9,3.3c-3.2,0-6-1.9-6-5.8c0-4.6,3.5-6.9,12.8-8.6v-1.1c0-2.8-1.8-3.8-4.3-3.8c-3.2,0-4.8,1.9-5.4,3.3
		L207.4,273z M219.6,278.6c-6.7,1.2-9.9,3.1-9.9,6c0,1.9,1.9,3.2,3.5,3.2c2.1,0,4.8-1.5,6.5-3.5V278.6z"/>
	<path fill="#868A8D" d="M242.5,260.8v24.5c0,1.5-0.1,3.1,0.2,4.6H240l-0.4-2.1c-1,1.3-3,2.5-5.5,2.5c-3.7,0-8.6-2.5-8.6-10.9
		c0-8.2,4.9-10.9,8.4-10.9c2,0,3.9,1,5.5,2.3l0.2,0.1v-10.2H242.5z M239.6,274c-1.6-1.7-3.6-2.9-5.3-2.9c-3.4,0-5.9,2.2-5.9,8.6
		c0,5.3,2.3,8.2,5.9,8.2c1.9,0,3.2-0.8,5.3-2.8V274z"/>
	<path fill="#868A8D" d="M262.4,285.5c-1.4,2.4-3.3,4.9-8.1,4.9c-4.7,0-9.1-3.2-9.1-10.9c0-6.8,3.4-10.9,8.6-10.9c4.4,0,8,2.8,8,9.5
		v1.9h-13.6c0,4.6,2.7,7.8,6.2,7.8c2.6,0,4.6-1.4,5.8-3.6L262.4,285.5z M258.9,277.5c0-3.9-1.9-6.5-5-6.5c-3.5,0-5.4,2.6-5.6,6.5
		H258.9z"/>
	<path fill="#868A8D" d="M265,269h2.9v4.2h0.1c1.6-2.9,3.3-4.5,6.8-4.5v2.9c-3.6,0.1-5.5,2.5-6.9,6.8V290H265V269z"/>
	<path fill="#868A8D" d="M278.1,284.6c1.4,2,3.4,3.2,6,3.2c3.1,0,4.5-1.7,4.5-3.5c0-5.3-12.4-2.5-12.2-10.2c0.1-3.6,2.9-5.7,6.9-5.6
		c2.7,0,5.8,1.5,7.2,3.7l-2,1.8c-1.6-2-3.1-2.9-5.4-2.9c-2.5,0-3.8,1.3-3.8,3.1c0,4.6,12.2,2.2,12.2,10c0,4.1-3.6,6.1-7.3,6.1
		c-3.3,0-6.5-1.4-8.4-4L278.1,284.6z"/>
	<path fill="#868A8D" d="M297.6,260.8v11h0.1c1.7-1.9,3.8-3.2,6.2-3.2c3.1,0,6.1,1.6,6.1,6.1V290H307v-15.2c0-2.8-1.3-3.7-3.4-3.7
		c-2.2,0-4.7,1.8-6,3.2V290h-2.9v-29.1H297.6z"/>
	<path fill="#868A8D" d="M317.3,260.4v3.5h-2.9v-3.5H317.3z M314.4,269h2.9v21h-2.9V269z"/>
	<path fill="#868A8D" d="M321.8,297.7V269h2.9v2.5h0.1c1.1-1.6,3.4-2.9,5.4-2.9c3.7,0,8.6,2.5,8.6,10.9c0,8.2-4.9,10.9-8.4,10.9
		c-2,0-3.9-1-5.5-2.3l-0.2-0.1v9.8H321.8z M324.7,285c1.6,1.7,3.6,2.9,5.3,2.9c3.4,0,5.9-2.2,5.9-8.6c0-5.3-2.3-8.2-5.9-8.2
		c-1.9,0-3.2,0.8-5.3,2.8V285z"/>
</g>
<g>
	<path fill="#D4E48F" d="M82,66.1L47.5,11.4c-1.3-2.1-4.1-2.7-6.2-1.4l-5.8,3.7c-2.1,1.3-2.7,4.1-1.4,6.2l28.6,45.4l16.5,6.6
		L82,66.1z"/>
	<path fill="#D4E48F" d="M84.2,99.3l46.6,74c1.3,2.1,4.1,2.7,6.2,1.4l5.8-3.7c2.1-1.3,2.7-4.1,1.4-6.2L102.1,98l-14.6-5.8L84.2,99.3
		z"/>
	<path fill="#B5E0DC" d="M106.4,50.5l16.8-36.8c1-2.2,0-4.9-2.2-5.9L114.7,5c-2.2-1-4.9,0-5.9,2.2L82,66.1l2.7,4.3L106.4,50.5z"/>
	<path fill="#B5E0DC" d="M60.1,114l-32.9,72.2c-1,2.2,0,4.9,2.2,5.9l6.2,2.8c2.2,1,4.9,0,5.9-2.2l42.6-93.4l-2.9-4.6L60.1,114z"/>
	<polygon fill="#9BCF85" points="81.8,72.9 84.6,70.3 82,66.1 79.3,71.9 	"/>
	<polygon fill="#9BCF85" points="85.1,91.3 81.3,94.7 84.2,99.3 87.5,92.2 	"/>
	<path fill="#F37043" d="M62.8,65.3L12.9,45.4c-2.3-0.9-4.9,0.2-5.8,2.5l-2.5,6.4c-0.9,2.3,0.2,4.9,2.5,5.8l61.8,24.6l4-3.6
		L62.8,65.3z"/>
	<path fill="#F37043" d="M213.5,125.3L98.2,79.4l-5,4.5l8.9,14.1l105.6,42.1c2.3,0.9,4.9-0.2,5.8-2.5l2.5-6.4
		C217,128.9,215.8,126.3,213.5,125.3z"/>
	<polygon fill="#CE6B38" points="76.8,77.5 79.3,71.9 62.8,65.3 72.7,81.1 	"/>
	<polygon fill="#CE6B38" points="89.8,87 87.5,92.2 102.1,98 93.2,83.9 	"/>
	<polygon fill="#A3653C" points="79.3,71.9 76.8,77.5 81.8,72.9 	"/>
	<polygon fill="#A3653C" points="87.5,92.2 89.8,87 85.1,91.3 	"/>
	<path fill="#00849C" d="M98.2,79.4L147,35.1c1.8-1.7,2-4.5,0.3-6.3l-4.6-5.1c-1.7-1.8-4.5-2-6.3-0.3l-29.9,27.2L94,77.7L98.2,79.4z
		"/>
	<path fill="#00849C" d="M68.8,84.7l-49.4,44.8c-1.8,1.7-2,4.5-0.3,6.3l4.6,5.1c1.7,1.8,4.5,2,6.3,0.3L60.1,114l12.6-27.7L68.8,84.7
		z"/>
	<polygon fill="#00848E" points="77.1,88.1 72.7,86.3 60.1,114 81.3,94.7 	"/>
	<polygon fill="#00848E" points="87.7,75.2 94,77.7 106.4,50.5 84.6,70.3 	"/>
	<polygon fill="#008266" points="81.3,94.7 85.1,91.3 77.1,88.1 	"/>
	<polygon fill="#008266" points="84.6,70.3 81.8,72.9 87.7,75.2 	"/>
	<polygon fill="#244E47" points="74.1,83.3 72.7,81.1 68.8,84.7 72.7,86.3 77.1,88.1 	"/>
	<polygon fill="#244E47" points="94,77.7 87.7,75.2 92.1,82.1 93.2,83.9 98.2,79.4 	"/>
	<polygon fill="#254E40" points="92.1,82.1 87.7,75.2 81.8,72.9 76.8,77.5 72.7,81.1 74.1,83.3 77.1,88.1 85.1,91.3 89.8,87 
		93.2,83.9 	"/>
</g>
</svg>
