<svg xmlns="http://www.w3.org/2000/svg" viewBox="0 0 12 12" enable-background="new 0 0 12 12"><path d="M3.7.5C4.4.2 5.2 0 6 0s1.6.2 2.3.5 1.4.7 1.9 1.3 1 1.2 1.3 1.9.5 1.5.5 2.3-.2 1.6-.5 2.3-.7 1.4-1.3 1.9-1.2 1-1.9 1.3-1.5.5-2.3.5-1.6-.2-2.3-.5-1.4-.7-1.9-1.3S.8 9 .5 8.3 0 6.8 0 6s.2-1.6.5-2.3.7-1.4 1.3-1.9S2.9.8 3.7.5zm.1 10.6c.7.3 1.4.4 2.2.4s1.5-.1 2.2-.4 1.3-.7 1.8-1.2.9-1.1 1.2-1.8.4-1.4.4-2.2-.1-1.5-.4-2.2-.7-1.3-1.2-1.8-1.1-.7-1.8-1S6.8.4 6 .4 4.5.6 3.8.9s-1.2.7-1.7 1.2-.9 1-1.2 1.7S.4 5.2.4 6s.1 1.5.4 2.2S1.5 9.5 2 10s1.1.8 1.8 1.1zm2-9.5s.1-.1.2-.1.1 0 .2.1.1.1.1.2V6c0 .1 0 .1-.1.2s-.1 0-.2 0H3.2c-.1 0-.1 0-.2-.1s0 0 0-.1 0-.1.1-.2.1-.1.2-.1h2.6v-4c-.1 0-.1-.1-.1-.1z"/></svg>