<?xml version="1.0" encoding="utf-8"?>
<!-- Generator: Adobe Illustrator 18.1.1, SVG Export Plug-In . SVG Version: 6.00 Build 0)  -->
<svg version="1.1" xmlns="http://www.w3.org/2000/svg" xmlns:xlink="http://www.w3.org/1999/xlink" x="0px" y="0px" width="213px"
	 height="190.8px" viewBox="0 0 213 190.8" enable-background="new 0 0 213 190.8" xml:space="preserve">
<g id="Layer_1">
	<g display="none">
		<path display="inline" fill="#868A8D" d="M185.4,184.5c-1.3,5.4-4.3,9.1-10.2,9.1c-6.5,0-11.1-4.8-11.1-15c0-9.5,4.1-15,11.1-15
			c5.4,0,8.6,3.1,9.8,8.5l-3,0.9c-1-4.1-2.9-6.6-7.3-6.6c-4.2,0-7.5,3.9-7.5,12.2c0,8.4,3.3,12.2,8.2,12.2c4.5,0,6.2-3.4,7.1-6.9
			L185.4,184.5z"/>
		<path display="inline" fill="#868A8D" d="M204.2,188.7c-1.4,2.4-3.3,4.9-8.1,4.9c-4.7,0-9.1-3.2-9.1-10.9c0-6.8,3.4-10.9,8.6-10.9
			c4.4,0,8,2.8,8,9.5v1.9h-13.6c0,4.6,2.7,7.8,6.2,7.8c2.6,0,4.6-1.4,5.8-3.5L204.2,188.7z M200.6,180.7c0-3.9-1.9-6.5-5-6.5
			c-3.5,0-5.4,2.6-5.6,6.5H200.6z"/>
		<path display="inline" fill="#868A8D" d="M209.6,172.2v2.8h0.1c1.7-1.9,3.8-3.2,6.2-3.2c3.1,0,6.1,1.6,6.1,6.1v15.3h-2.9V178
			c0-2.8-1.3-3.7-3.4-3.7c-2.2,0-4.7,1.8-6,3.2v15.7h-2.9v-21H209.6z"/>
		<path display="inline" fill="#868A8D" d="M227.3,172.2v-6.9h2.9v6.9h4.8v2.5h-4.8v14.9c0,1,0.7,1.5,2.4,1.5c1,0,1.8-0.1,2.6-0.2
			v2.4c-0.5,0.2-1.7,0.3-3.4,0.3c-3.1,0-4.5-0.8-4.5-3.5v-15.4h-3.4v-2.5H227.3z"/>
		<path display="inline" fill="#868A8D" d="M238.6,172.2h2.9v4.2h0.1c1.6-2.9,3.3-4.5,6.8-4.5v2.9c-3.6,0.1-5.5,2.5-6.9,6.8v11.6
			h-2.9V172.2z"/>
		<path display="inline" fill="#868A8D" d="M266.4,188.7c-1.4,2.4-3.3,4.9-8.1,4.9c-4.7,0-9.1-3.2-9.1-10.9c0-6.8,3.4-10.9,8.6-10.9
			c4.4,0,8,2.8,8,9.5v1.9h-13.6c0,4.6,2.7,7.8,6.2,7.8c2.6,0,4.6-1.4,5.8-3.5L266.4,188.7z M262.8,180.7c0-3.9-1.9-6.5-5-6.5
			c-3.5,0-5.4,2.6-5.7,6.5H262.8z"/>
		<path display="inline" fill="#868A8D" d="M281.5,193.2v-18.5h-3.6v-2.5h3.6v-2.4c0-5,1.7-6.2,5.1-6.2c0.8,0,1.7,0.1,2.6,0.2v2.6
			c-0.7-0.1-1.5-0.3-2.1-0.3c-2,0-2.7,0.6-2.7,3v3.1h4.6v2.5h-4.6v18.5H281.5z"/>
		<path display="inline" fill="#868A8D" d="M297.9,193.6c-5.7,0-8.6-4.8-8.6-10.9c0-6.1,2.9-10.9,8.6-10.9c5.7,0,8.6,4.8,8.6,10.9
			C306.5,188.7,303.7,193.6,297.9,193.6z M297.9,174.3c-3.5,0-5.7,3-5.7,8.4c0,5.4,2.2,8.4,5.7,8.4c3.5,0,5.7-3,5.7-8.4
			C303.6,177.3,301.4,174.3,297.9,174.3z"/>
		<path display="inline" fill="#868A8D" d="M310,172.2h2.9v4.2h0.1c1.6-2.9,3.3-4.5,6.8-4.5v2.9c-3.6,0.1-5.5,2.5-6.9,6.8v11.6H310
			V172.2z"/>
		<path display="inline" fill="#868A8D" d="M180.4,217.6c-0.7-2.8-3-5.1-6.8-5.1c-3.4,0-5.4,1.6-5.4,4.5
			c-0.1,6.4,16.4,4.8,16.4,14.1c0,4.2-2.4,8.6-9.8,8.6c-6.4,0-8.9-4.1-10.4-7.6l2.9-1c1.2,3.1,3.3,5.9,7.6,5.9
			c4.3,0,6.4-2.3,6.4-5.2c0-7.4-16.4-5.2-16.4-14.4c0-4.2,3.5-7.5,8.8-7.5c4.5,0,8.1,2.4,9.6,7.2L180.4,217.6z"/>
		<path display="inline" fill="#868A8D" d="M199.7,239.3v-2.8h-0.1c-1.7,1.9-3.8,3.2-6.2,3.2c-3.1,0-6.1-1.6-6.1-6.1v-15.3h2.9v15.2
			c0,2.8,1.3,3.7,3.4,3.7c2.2,0,4.7-1.8,6-3.2v-15.7h2.9v21H199.7z"/>
		<path display="inline" fill="#868A8D" d="M207.8,234c1.4,2,3.4,3.2,6,3.2c3.1,0,4.5-1.7,4.5-3.5c0-5.3-12.4-2.5-12.2-10.2
			c0.1-3.6,2.9-5.7,6.9-5.6c2.7,0,5.8,1.5,7.2,3.7l-2,1.8c-1.6-2-3.1-2.9-5.4-2.9c-2.5,0-3.8,1.3-3.8,3.1c0,4.6,12.2,2.2,12.2,10
			c0,4.1-3.6,6.1-7.3,6.1c-3.3,0-6.5-1.4-8.4-4L207.8,234z"/>
		<path display="inline" fill="#868A8D" d="M225,218.3v-6.9h2.9v6.9h4.8v2.5h-4.8v14.9c0,1,0.7,1.5,2.4,1.5c1,0,1.8-0.1,2.6-0.2v2.4
			c-0.5,0.2-1.7,0.3-3.4,0.3c-3.1,0-4.5-0.8-4.5-3.5v-15.4h-3.4v-2.5H225z"/>
		<path display="inline" fill="#868A8D" d="M235,222.3c1.3-2.4,3.9-4.4,7.9-4.4c3.6,0,7.3,1.7,7.3,6.3v10.6c0,2.3,0.2,3.4,0.5,4.5
			h-3l-0.3-2.9c-1.5,1.6-3.8,3.3-6.9,3.3c-3.2,0-6-1.9-6-5.8c0-4.6,3.5-6.9,12.8-8.6v-1.1c0-2.8-1.8-3.8-4.3-3.8
			c-3.2,0-4.8,1.9-5.4,3.3L235,222.3z M247.2,227.9c-6.7,1.2-9.9,3.1-9.9,6c0,1.9,1.9,3.2,3.5,3.2c2.1,0,4.8-1.5,6.5-3.5V227.9z"/>
		<path display="inline" fill="#868A8D" d="M257.5,209.8v3.5h-2.9v-3.5H257.5z M254.6,218.3h2.9v21h-2.9V218.3z"/>
		<path display="inline" fill="#868A8D" d="M265.7,218.3v2.8h0.1c1.7-1.9,3.8-3.2,6.2-3.2c3.1,0,6.1,1.6,6.1,6.1v15.3h-2.9v-15.2
			c0-2.8-1.3-3.7-3.4-3.7c-2.2,0-4.7,1.8-6,3.2v15.7h-2.9v-21H265.7z"/>
		<path display="inline" fill="#868A8D" d="M282.3,222.3c1.3-2.4,3.9-4.4,7.9-4.4c3.6,0,7.3,1.7,7.3,6.3v10.6c0,2.3,0.2,3.4,0.5,4.5
			h-3l-0.3-2.9c-1.5,1.6-3.8,3.3-6.9,3.3c-3.2,0-6-1.9-6-5.8c0-4.6,3.5-6.9,12.8-8.6v-1.1c0-2.8-1.8-3.8-4.3-3.8
			c-3.2,0-4.8,1.9-5.4,3.3L282.3,222.3z M294.6,227.9c-6.7,1.2-9.9,3.1-9.9,6c0,1.9,1.9,3.2,3.5,3.2c2.1,0,4.8-1.5,6.5-3.5V227.9z"
			/>
		<path display="inline" fill="#868A8D" d="M305.1,210.2v10.2l0.2-0.1c1.6-1.3,3.6-2.3,5.5-2.3c3.6,0,8.4,2.7,8.4,10.9
			c0,8.4-4.9,10.9-8.6,10.9c-2.5,0-4.4-1-6.1-2.6l-0.5,2.2h-2c0.2-1.5,0.2-3.1,0.2-4.6v-24.5H305.1z M305.1,234.4
			c2.1,2,3.4,2.8,5.3,2.8c3.6,0,5.9-2.9,5.9-8.2c0-6.3-2.5-8.6-5.9-8.6c-1.7,0-3.7,1.2-5.3,2.9V234.4z"/>
		<path display="inline" fill="#868A8D" d="M326.5,209.8v3.5h-2.9v-3.5H326.5z M323.6,218.3h2.9v21h-2.9V218.3z"/>
		<path display="inline" fill="#868A8D" d="M335.3,210.2v29.1h-2.9v-29.1H335.3z"/>
		<path display="inline" fill="#868A8D" d="M343.3,209.8v3.5h-2.9v-3.5H343.3z M340.4,218.3h2.9v21h-2.9V218.3z"/>
		<path display="inline" fill="#868A8D" d="M350,218.3v-6.9h2.9v6.9h4.8v2.5h-4.8v14.9c0,1,0.7,1.5,2.4,1.5c1,0,1.8-0.1,2.6-0.2v2.4
			c-0.5,0.2-1.7,0.3-3.4,0.3c-3.1,0-4.5-0.8-4.5-3.5v-15.4h-3.4v-2.5H350z"/>
		<path display="inline" fill="#868A8D" d="M375.7,218.3l-7.4,22.8c-1.5,4.7-4.3,5.9-7.1,5.9c-1,0-1.5-0.2-2.1-0.2v-2.4
			c0.4,0,0.9,0.1,1.6,0.1c1.8,0,4.5-0.4,5.5-5l-7.3-21.2h3.1l5.7,16h0.1l4.9-16H375.7z"/>
		<path display="inline" fill="#868A8D" d="M166.7,285.4v-29.1h3.2v26.4h13.8v2.7H166.7z"/>
		<path display="inline" fill="#868A8D" d="M201.2,280.9c-1.4,2.4-3.3,4.9-8.1,4.9c-4.7,0-9.1-3.2-9.1-10.9c0-6.8,3.4-10.9,8.6-10.9
			c4.4,0,8,2.8,8,9.5v1.9h-13.6c0,4.6,2.7,7.8,6.2,7.8c2.6,0,4.6-1.4,5.8-3.6L201.2,280.9z M197.6,273c0-3.9-1.9-6.5-5-6.5
			c-3.5,0-5.4,2.6-5.7,6.5H197.6z"/>
		<path display="inline" fill="#868A8D" d="M204,268.5c1.3-2.4,3.9-4.4,7.9-4.4c3.6,0,7.3,1.7,7.3,6.3v10.6c0,2.3,0.2,3.4,0.5,4.5
			h-3l-0.3-2.9c-1.5,1.6-3.8,3.3-6.9,3.3c-3.2,0-6-1.9-6-5.8c0-4.6,3.5-6.9,12.8-8.6v-1.1c0-2.8-1.8-3.8-4.3-3.8
			c-3.2,0-4.8,1.9-5.4,3.3L204,268.5z M216.2,274.1c-6.7,1.2-9.9,3.1-9.9,6c0,1.9,1.9,3.2,3.5,3.2c2.1,0,4.8-1.5,6.5-3.5V274.1z"/>
		<path display="inline" fill="#868A8D" d="M239.2,256.3v24.5c0,1.5-0.1,3.1,0.2,4.6h-2.7l-0.4-2.1c-1,1.3-3,2.5-5.5,2.5
			c-3.7,0-8.6-2.5-8.6-10.9c0-8.2,4.9-10.9,8.4-10.9c2,0,3.9,1,5.5,2.3l0.2,0.1v-10.2H239.2z M236.3,269.4c-1.6-1.7-3.6-2.9-5.3-2.9
			c-3.4,0-5.9,2.2-5.9,8.6c0,5.3,2.3,8.2,5.9,8.2c1.9,0,3.2-0.8,5.3-2.8V269.4z"/>
		<path display="inline" fill="#868A8D" d="M259.1,280.9c-1.4,2.4-3.3,4.9-8.1,4.9c-4.7,0-9.1-3.2-9.1-10.9c0-6.8,3.4-10.9,8.6-10.9
			c4.4,0,8,2.8,8,9.5v1.9h-13.6c0,4.6,2.7,7.8,6.2,7.8c2.6,0,4.6-1.4,5.8-3.6L259.1,280.9z M255.5,273c0-3.9-1.9-6.5-5-6.5
			c-3.5,0-5.4,2.6-5.6,6.5H255.5z"/>
		<path display="inline" fill="#868A8D" d="M261.7,264.4h2.9v4.2h0.1c1.6-2.9,3.3-4.5,6.8-4.5v2.9c-3.6,0.1-5.5,2.5-6.9,6.8v11.6
			h-2.9V264.4z"/>
		<path display="inline" fill="#868A8D" d="M274.7,280.1c1.4,2,3.4,3.2,6,3.2c3.1,0,4.5-1.7,4.5-3.5c0-5.3-12.4-2.5-12.2-10.2
			c0.1-3.6,2.9-5.7,6.9-5.6c2.7,0,5.8,1.5,7.2,3.7l-2,1.8c-1.6-2-3.1-2.9-5.4-2.9c-2.5,0-3.8,1.3-3.8,3.1c0,4.6,12.2,2.2,12.2,10
			c0,4.1-3.6,6.1-7.3,6.1c-3.3,0-6.5-1.4-8.4-4L274.7,280.1z"/>
		<path display="inline" fill="#868A8D" d="M294.2,256.3v11h0.1c1.7-1.9,3.8-3.2,6.2-3.2c3.1,0,6.1,1.6,6.1,6.1v15.3h-2.9v-15.2
			c0-2.8-1.3-3.7-3.4-3.7c-2.2,0-4.7,1.8-6,3.2v15.7h-2.9v-29.1H294.2z"/>
		<path display="inline" fill="#868A8D" d="M314,255.9v3.5h-2.9v-3.5H314z M311.1,264.4h2.9v21h-2.9V264.4z"/>
		<path display="inline" fill="#868A8D" d="M318.5,293.2v-28.7h2.9v2.5h0.1c1.1-1.6,3.4-2.9,5.4-2.9c3.7,0,8.6,2.5,8.6,10.9
			c0,8.2-4.9,10.9-8.4,10.9c-2,0-3.9-1-5.5-2.3l-0.2-0.1v9.8H318.5z M321.4,280.4c1.6,1.7,3.6,2.9,5.3,2.9c3.4,0,5.9-2.2,5.9-8.6
			c0-5.3-2.3-8.2-5.9-8.2c-1.9,0-3.2,0.8-5.3,2.8V280.4z"/>
	</g>
	<g>
		<path fill="#D4E48F" d="M78.6,61.5L44.2,6.9c-1.3-2.1-4.1-2.7-6.2-1.4l-5.8,3.7c-2.1,1.3-2.7,4.1-1.4,6.2l28.6,45.4L76,67.3
			L78.6,61.5z"/>
		<path fill="#D4E48F" d="M80.9,94.8l46.6,74c1.3,2.1,4.1,2.7,6.2,1.4l5.8-3.7c2.1-1.3,2.7-4.1,1.4-6.2L98.7,93.4l-14.6-5.8
			L80.9,94.8z"/>
		<path fill="#B5E0DC" d="M103.1,46l16.8-36.8c1-2.2,0-4.9-2.2-5.9l-6.2-2.8c-2.2-1-4.9,0-5.9,2.2L78.6,61.5l2.7,4.3L103.1,46z"/>
		<path fill="#B5E0DC" d="M56.8,109.4l-32.9,72.2c-1,2.2,0,4.9,2.2,5.9l6.2,2.8c2.2,1,4.9,0,5.9-2.2l42.6-93.4L78,90.2L56.8,109.4z"
			/>
		<polygon fill="#9BCF85" points="78.5,68.3 81.3,65.8 78.6,61.5 76,67.3 		"/>
		<polygon fill="#9BCF85" points="81.8,86.7 78,90.2 80.9,94.8 84.1,87.6 		"/>
		<path fill="#F37043" d="M59.4,60.7L9.5,40.9c-2.3-0.9-4.9,0.2-5.8,2.5l-2.5,6.4c-0.9,2.3,0.2,4.9,2.5,5.8l61.8,24.6l4-3.6
			L59.4,60.7z"/>
		<path fill="#F37043" d="M210.2,120.8L94.8,74.8l-5,4.5l8.9,14.1l105.6,42.1c2.3,0.9,4.9-0.2,5.8-2.5l2.5-6.4
			C213.6,124.3,212.5,121.7,210.2,120.8z"/>
		<polygon fill="#CE6B38" points="73.4,72.9 76,67.3 59.4,60.7 69.4,76.6 		"/>
		<polygon fill="#CE6B38" points="86.5,82.5 84.1,87.6 98.7,93.4 89.9,79.4 		"/>
		<polygon fill="#A3653C" points="76,67.3 73.4,72.9 78.5,68.3 		"/>
		<polygon fill="#A3653C" points="84.1,87.6 86.5,82.5 81.8,86.7 		"/>
		<path fill="#00849C" d="M94.8,74.8l48.8-44.3c1.8-1.7,2-4.5,0.3-6.3l-4.6-5.1c-1.7-1.8-4.5-2-6.3-0.3L103.1,46L90.7,73.2
			L94.8,74.8z"/>
		<path fill="#00849C" d="M65.4,80.2L16.1,125c-1.8,1.7-2,4.5-0.3,6.3l4.6,5.1c1.7,1.8,4.5,2,6.3,0.3l30.1-27.3l12.6-27.7L65.4,80.2
			z"/>
		<polygon fill="#00848E" points="73.8,83.5 69.4,81.8 56.8,109.4 78,90.2 		"/>
		<polygon fill="#00848E" points="84.4,70.7 90.7,73.2 103.1,46 81.3,65.8 		"/>
		<polygon fill="#008266" points="78,90.2 81.8,86.7 73.8,83.5 		"/>
		<polygon fill="#008266" points="81.3,65.8 78.5,68.3 84.4,70.7 		"/>
		<polygon fill="#244E47" points="70.8,78.7 69.4,76.6 65.4,80.2 69.4,81.8 73.8,83.5 		"/>
		<polygon fill="#244E47" points="90.7,73.2 84.4,70.7 88.7,77.5 89.9,79.4 94.8,74.8 		"/>
		<polygon fill="#254E40" points="88.7,77.5 84.4,70.7 78.5,68.3 73.4,72.9 69.4,76.6 70.8,78.7 73.8,83.5 81.8,86.7 86.5,82.5 
			89.9,79.4 		"/>
	</g>
</g>
<g id="Layer_2">
	<g display="none">
		<path display="inline" fill="#868A8D" d="M185.4,184.5c-1.3,5.4-4.3,9.1-10.2,9.1c-6.5,0-11.1-4.8-11.1-15c0-9.5,4.1-15,11.1-15
			c5.4,0,8.6,3.1,9.8,8.5l-3,0.9c-1-4.1-2.9-6.6-7.3-6.6c-4.2,0-7.5,3.9-7.5,12.2c0,8.4,3.3,12.2,8.2,12.2c4.5,0,6.2-3.4,7.1-6.9
			L185.4,184.5z"/>
		<path display="inline" fill="#868A8D" d="M204.2,188.7c-1.4,2.4-3.3,4.9-8.1,4.9c-4.7,0-9.1-3.2-9.1-10.9c0-6.8,3.4-10.9,8.6-10.9
			c4.4,0,8,2.8,8,9.5v1.9h-13.6c0,4.6,2.7,7.8,6.2,7.8c2.6,0,4.6-1.4,5.8-3.5L204.2,188.7z M200.6,180.7c0-3.9-1.9-6.5-5-6.5
			c-3.5,0-5.4,2.6-5.6,6.5H200.6z"/>
		<path display="inline" fill="#868A8D" d="M209.6,172.2v2.8h0.1c1.7-1.9,3.8-3.2,6.2-3.2c3.1,0,6.1,1.6,6.1,6.1v15.3h-2.9V178
			c0-2.8-1.3-3.7-3.4-3.7c-2.2,0-4.7,1.8-6,3.2v15.7h-2.9v-21H209.6z"/>
		<path display="inline" fill="#868A8D" d="M227.3,172.2v-6.9h2.9v6.9h4.8v2.5h-4.8v14.9c0,1,0.7,1.5,2.4,1.5c1,0,1.8-0.1,2.6-0.2
			v2.4c-0.5,0.2-1.7,0.3-3.4,0.3c-3.1,0-4.5-0.8-4.5-3.5v-15.4h-3.4v-2.5H227.3z"/>
		<path display="inline" fill="#868A8D" d="M238.6,172.2h2.9v4.2h0.1c1.6-2.9,3.3-4.5,6.8-4.5v2.9c-3.6,0.1-5.5,2.5-6.9,6.8v11.6
			h-2.9V172.2z"/>
		<path display="inline" fill="#868A8D" d="M266.4,188.7c-1.4,2.4-3.3,4.9-8.1,4.9c-4.7,0-9.1-3.2-9.1-10.9c0-6.8,3.4-10.9,8.6-10.9
			c4.4,0,8,2.8,8,9.5v1.9h-13.6c0,4.6,2.7,7.8,6.2,7.8c2.6,0,4.6-1.4,5.8-3.5L266.4,188.7z M262.8,180.7c0-3.9-1.9-6.5-5-6.5
			c-3.5,0-5.4,2.6-5.7,6.5H262.8z"/>
		<path display="inline" fill="#868A8D" d="M281.5,193.2v-18.5h-3.6v-2.5h3.6v-2.4c0-5,1.7-6.2,5.1-6.2c0.8,0,1.7,0.1,2.6,0.2v2.6
			c-0.7-0.1-1.5-0.3-2.1-0.3c-2,0-2.7,0.6-2.7,3v3.1h4.6v2.5h-4.6v18.5H281.5z"/>
		<path display="inline" fill="#868A8D" d="M297.9,193.6c-5.7,0-8.6-4.8-8.6-10.9c0-6.1,2.9-10.9,8.6-10.9c5.7,0,8.6,4.8,8.6,10.9
			C306.5,188.7,303.7,193.6,297.9,193.6z M297.9,174.3c-3.5,0-5.7,3-5.7,8.4c0,5.4,2.2,8.4,5.7,8.4c3.5,0,5.7-3,5.7-8.4
			C303.6,177.3,301.4,174.3,297.9,174.3z"/>
		<path display="inline" fill="#868A8D" d="M310,172.2h2.9v4.2h0.1c1.6-2.9,3.3-4.5,6.8-4.5v2.9c-3.6,0.1-5.5,2.5-6.9,6.8v11.6H310
			V172.2z"/>
		<path display="inline" fill="#868A8D" d="M180.4,217.6c-0.7-2.8-3-5.1-6.8-5.1c-3.4,0-5.4,1.6-5.4,4.5
			c-0.1,6.4,16.4,4.8,16.4,14.1c0,4.2-2.4,8.6-9.8,8.6c-6.4,0-8.9-4.1-10.4-7.6l2.9-1c1.2,3.1,3.3,5.9,7.6,5.9
			c4.3,0,6.4-2.3,6.4-5.2c0-7.4-16.4-5.2-16.4-14.4c0-4.2,3.5-7.5,8.8-7.5c4.5,0,8.1,2.4,9.6,7.2L180.4,217.6z"/>
		<path display="inline" fill="#868A8D" d="M199.7,239.3v-2.8h-0.1c-1.7,1.9-3.8,3.2-6.2,3.2c-3.1,0-6.1-1.6-6.1-6.1v-15.3h2.9v15.2
			c0,2.8,1.3,3.7,3.4,3.7c2.2,0,4.7-1.8,6-3.2v-15.7h2.9v21H199.7z"/>
		<path display="inline" fill="#868A8D" d="M207.8,234c1.4,2,3.4,3.2,6,3.2c3.1,0,4.5-1.7,4.5-3.5c0-5.3-12.4-2.5-12.2-10.2
			c0.1-3.6,2.9-5.7,6.9-5.6c2.7,0,5.8,1.5,7.2,3.7l-2,1.8c-1.6-2-3.1-2.9-5.4-2.9c-2.5,0-3.8,1.3-3.8,3.1c0,4.6,12.2,2.2,12.2,10
			c0,4.1-3.6,6.1-7.3,6.1c-3.3,0-6.5-1.4-8.4-4L207.8,234z"/>
		<path display="inline" fill="#868A8D" d="M225,218.3v-6.9h2.9v6.9h4.8v2.5h-4.8v14.9c0,1,0.7,1.5,2.4,1.5c1,0,1.8-0.1,2.6-0.2v2.4
			c-0.5,0.2-1.7,0.3-3.4,0.3c-3.1,0-4.5-0.8-4.5-3.5v-15.4h-3.4v-2.5H225z"/>
		<path display="inline" fill="#868A8D" d="M235,222.3c1.3-2.4,3.9-4.4,7.9-4.4c3.6,0,7.3,1.7,7.3,6.3v10.6c0,2.3,0.2,3.4,0.5,4.5
			h-3l-0.3-2.9c-1.5,1.6-3.8,3.3-6.9,3.3c-3.2,0-6-1.9-6-5.8c0-4.6,3.5-6.9,12.8-8.6v-1.1c0-2.8-1.8-3.8-4.3-3.8
			c-3.2,0-4.8,1.9-5.4,3.3L235,222.3z M247.2,227.9c-6.7,1.2-9.9,3.1-9.9,6c0,1.9,1.9,3.2,3.5,3.2c2.1,0,4.8-1.5,6.5-3.5V227.9z"/>
		<path display="inline" fill="#868A8D" d="M257.5,209.8v3.5h-2.9v-3.5H257.5z M254.6,218.3h2.9v21h-2.9V218.3z"/>
		<path display="inline" fill="#868A8D" d="M265.7,218.3v2.8h0.1c1.7-1.9,3.8-3.2,6.2-3.2c3.1,0,6.1,1.6,6.1,6.1v15.3h-2.9v-15.2
			c0-2.8-1.3-3.7-3.4-3.7c-2.2,0-4.7,1.8-6,3.2v15.7h-2.9v-21H265.7z"/>
		<path display="inline" fill="#868A8D" d="M282.3,222.3c1.3-2.4,3.9-4.4,7.9-4.4c3.6,0,7.3,1.7,7.3,6.3v10.6c0,2.3,0.2,3.4,0.5,4.5
			h-3l-0.3-2.9c-1.5,1.6-3.8,3.3-6.9,3.3c-3.2,0-6-1.9-6-5.8c0-4.6,3.5-6.9,12.8-8.6v-1.1c0-2.8-1.8-3.8-4.3-3.8
			c-3.2,0-4.8,1.9-5.4,3.3L282.3,222.3z M294.6,227.9c-6.7,1.2-9.9,3.1-9.9,6c0,1.9,1.9,3.2,3.5,3.2c2.1,0,4.8-1.5,6.5-3.5V227.9z"
			/>
		<path display="inline" fill="#868A8D" d="M305.1,210.2v10.2l0.2-0.1c1.6-1.3,3.6-2.3,5.5-2.3c3.6,0,8.4,2.7,8.4,10.9
			c0,8.4-4.9,10.9-8.6,10.9c-2.5,0-4.4-1-6.1-2.6l-0.5,2.2h-2c0.2-1.5,0.2-3.1,0.2-4.6v-24.5H305.1z M305.1,234.4
			c2.1,2,3.4,2.8,5.3,2.8c3.6,0,5.9-2.9,5.9-8.2c0-6.3-2.5-8.6-5.9-8.6c-1.7,0-3.7,1.2-5.3,2.9V234.4z"/>
		<path display="inline" fill="#868A8D" d="M326.5,209.8v3.5h-2.9v-3.5H326.5z M323.6,218.3h2.9v21h-2.9V218.3z"/>
		<path display="inline" fill="#868A8D" d="M335.3,210.2v29.1h-2.9v-29.1H335.3z"/>
		<path display="inline" fill="#868A8D" d="M343.3,209.8v3.5h-2.9v-3.5H343.3z M340.4,218.3h2.9v21h-2.9V218.3z"/>
		<path display="inline" fill="#868A8D" d="M350,218.3v-6.9h2.9v6.9h4.8v2.5h-4.8v14.9c0,1,0.7,1.5,2.4,1.5c1,0,1.8-0.1,2.6-0.2v2.4
			c-0.5,0.2-1.7,0.3-3.4,0.3c-3.1,0-4.5-0.8-4.5-3.5v-15.4h-3.4v-2.5H350z"/>
		<path display="inline" fill="#868A8D" d="M375.7,218.3l-7.4,22.8c-1.5,4.7-4.3,5.9-7.1,5.9c-1,0-1.5-0.2-2.1-0.2v-2.4
			c0.4,0,0.9,0.1,1.6,0.1c1.8,0,4.5-0.4,5.5-5l-7.3-21.2h3.1l5.7,16h0.1l4.9-16H375.7z"/>
		<path display="inline" fill="#868A8D" d="M166.7,285.4v-29.1h3.2v26.4h13.8v2.7H166.7z"/>
		<path display="inline" fill="#868A8D" d="M201.2,280.9c-1.4,2.4-3.3,4.9-8.1,4.9c-4.7,0-9.1-3.2-9.1-10.9c0-6.8,3.4-10.9,8.6-10.9
			c4.4,0,8,2.8,8,9.5v1.9h-13.6c0,4.6,2.7,7.8,6.2,7.8c2.6,0,4.6-1.4,5.8-3.6L201.2,280.9z M197.6,273c0-3.9-1.9-6.5-5-6.5
			c-3.5,0-5.4,2.6-5.7,6.5H197.6z"/>
		<path display="inline" fill="#868A8D" d="M204,268.5c1.3-2.4,3.9-4.4,7.9-4.4c3.6,0,7.3,1.7,7.3,6.3v10.6c0,2.3,0.2,3.4,0.5,4.5
			h-3l-0.3-2.9c-1.5,1.6-3.8,3.3-6.9,3.3c-3.2,0-6-1.9-6-5.8c0-4.6,3.5-6.9,12.8-8.6v-1.1c0-2.8-1.8-3.8-4.3-3.8
			c-3.2,0-4.8,1.9-5.4,3.3L204,268.5z M216.2,274.1c-6.7,1.2-9.9,3.1-9.9,6c0,1.9,1.9,3.2,3.5,3.2c2.1,0,4.8-1.5,6.5-3.5V274.1z"/>
		<path display="inline" fill="#868A8D" d="M239.2,256.3v24.5c0,1.5-0.1,3.1,0.2,4.6h-2.7l-0.4-2.1c-1,1.3-3,2.5-5.5,2.5
			c-3.7,0-8.6-2.5-8.6-10.9c0-8.2,4.9-10.9,8.4-10.9c2,0,3.9,1,5.5,2.3l0.2,0.1v-10.2H239.2z M236.3,269.4c-1.6-1.7-3.6-2.9-5.3-2.9
			c-3.4,0-5.9,2.2-5.9,8.6c0,5.3,2.3,8.2,5.9,8.2c1.9,0,3.2-0.8,5.3-2.8V269.4z"/>
		<path display="inline" fill="#868A8D" d="M259.1,280.9c-1.4,2.4-3.3,4.9-8.1,4.9c-4.7,0-9.1-3.2-9.1-10.9c0-6.8,3.4-10.9,8.6-10.9
			c4.4,0,8,2.8,8,9.5v1.9h-13.6c0,4.6,2.7,7.8,6.2,7.8c2.6,0,4.6-1.4,5.8-3.6L259.1,280.9z M255.5,273c0-3.9-1.9-6.5-5-6.5
			c-3.5,0-5.4,2.6-5.6,6.5H255.5z"/>
		<path display="inline" fill="#868A8D" d="M261.7,264.4h2.9v4.2h0.1c1.6-2.9,3.3-4.5,6.8-4.5v2.9c-3.6,0.1-5.5,2.5-6.9,6.8v11.6
			h-2.9V264.4z"/>
		<path display="inline" fill="#868A8D" d="M274.7,280.1c1.4,2,3.4,3.2,6,3.2c3.1,0,4.5-1.7,4.5-3.5c0-5.3-12.4-2.5-12.2-10.2
			c0.1-3.6,2.9-5.7,6.9-5.6c2.7,0,5.8,1.5,7.2,3.7l-2,1.8c-1.6-2-3.1-2.9-5.4-2.9c-2.5,0-3.8,1.3-3.8,3.1c0,4.6,12.2,2.2,12.2,10
			c0,4.1-3.6,6.1-7.3,6.1c-3.3,0-6.5-1.4-8.4-4L274.7,280.1z"/>
		<path display="inline" fill="#868A8D" d="M294.2,256.3v11h0.1c1.7-1.9,3.8-3.2,6.2-3.2c3.1,0,6.1,1.6,6.1,6.1v15.3h-2.9v-15.2
			c0-2.8-1.3-3.7-3.4-3.7c-2.2,0-4.7,1.8-6,3.2v15.7h-2.9v-29.1H294.2z"/>
		<path display="inline" fill="#868A8D" d="M314,255.9v3.5h-2.9v-3.5H314z M311.1,264.4h2.9v21h-2.9V264.4z"/>
		<path display="inline" fill="#868A8D" d="M318.5,293.2v-28.7h2.9v2.5h0.1c1.1-1.6,3.4-2.9,5.4-2.9c3.7,0,8.6,2.5,8.6,10.9
			c0,8.2-4.9,10.9-8.4,10.9c-2,0-3.9-1-5.5-2.3l-0.2-0.1v9.8H318.5z M321.4,280.4c1.6,1.7,3.6,2.9,5.3,2.9c3.4,0,5.9-2.2,5.9-8.6
			c0-5.3-2.3-8.2-5.9-8.2c-1.9,0-3.2,0.8-5.3,2.8V280.4z"/>
	</g>
	<g>
		<path fill="#D4E48F" d="M78.6,61.5L44.2,6.9c-1.3-2.1-4.1-2.7-6.2-1.4l-5.8,3.7c-2.1,1.3-2.7,4.1-1.4,6.2l28.6,45.4L76,67.3
			L78.6,61.5z"/>
		<path fill="#D4E48F" d="M80.9,94.8l46.6,74c1.3,2.1,4.1,2.7,6.2,1.4l5.8-3.7c2.1-1.3,2.7-4.1,1.4-6.2L98.7,93.4l-14.6-5.8
			L80.9,94.8z"/>
		<path fill="#B5E0DC" d="M103.1,46l16.8-36.8c1-2.2,0-4.9-2.2-5.9l-6.2-2.8c-2.2-1-4.9,0-5.9,2.2L78.6,61.5l2.7,4.3L103.1,46z"/>
		<path fill="#B5E0DC" d="M56.8,109.4l-32.9,72.2c-1,2.2,0,4.9,2.2,5.9l6.2,2.8c2.2,1,4.9,0,5.9-2.2l42.6-93.4L78,90.2L56.8,109.4z"
			/>
		<polygon fill="#9BCF85" points="78.5,68.3 81.3,65.8 78.6,61.5 76,67.3 		"/>
		<polygon fill="#9BCF85" points="81.8,86.7 78,90.2 80.9,94.8 84.1,87.6 		"/>
		<path fill="#F37043" d="M59.4,60.7L9.5,40.9c-2.3-0.9-4.9,0.2-5.8,2.5l-2.5,6.4c-0.9,2.3,0.2,4.9,2.5,5.8l61.8,24.6l4-3.6
			L59.4,60.7z"/>
		<path fill="#F37043" d="M210.2,120.8L94.8,74.8l-5,4.5l8.9,14.1l105.6,42.1c2.3,0.9,4.9-0.2,5.8-2.5l2.5-6.4
			C213.6,124.3,212.5,121.7,210.2,120.8z"/>
		<polygon fill="#CE6B38" points="73.4,72.9 76,67.3 59.4,60.7 69.4,76.6 		"/>
		<polygon fill="#CE6B38" points="86.5,82.5 84.1,87.6 98.7,93.4 89.9,79.4 		"/>
		<polygon fill="#A3653C" points="76,67.3 73.4,72.9 78.5,68.3 		"/>
		<polygon fill="#A3653C" points="84.1,87.6 86.5,82.5 81.8,86.7 		"/>
		<path fill="#00849C" d="M94.8,74.8l48.8-44.3c1.8-1.7,2-4.5,0.3-6.3l-4.6-5.1c-1.7-1.8-4.5-2-6.3-0.3L103.1,46L90.7,73.2
			L94.8,74.8z"/>
		<path fill="#00849C" d="M65.4,80.2L16.1,125c-1.8,1.7-2,4.5-0.3,6.3l4.6,5.1c1.7,1.8,4.5,2,6.3,0.3l30.1-27.3l12.6-27.7L65.4,80.2
			z"/>
		<polygon fill="#00848E" points="73.8,83.5 69.4,81.8 56.8,109.4 78,90.2 		"/>
		<polygon fill="#00848E" points="84.4,70.7 90.7,73.2 103.1,46 81.3,65.8 		"/>
		<polygon fill="#008266" points="78,90.2 81.8,86.7 73.8,83.5 		"/>
		<polygon fill="#008266" points="81.3,65.8 78.5,68.3 84.4,70.7 		"/>
		<polygon fill="#244E47" points="70.8,78.7 69.4,76.6 65.4,80.2 69.4,81.8 73.8,83.5 		"/>
		<polygon fill="#244E47" points="90.7,73.2 84.4,70.7 88.7,77.5 89.9,79.4 94.8,74.8 		"/>
		<polygon fill="#254E40" points="88.7,77.5 84.4,70.7 78.5,68.3 73.4,72.9 69.4,76.6 70.8,78.7 73.8,83.5 81.8,86.7 86.5,82.5 
			89.9,79.4 		"/>
	</g>
</g>
</svg>
