<?xml version="1.0" encoding="utf-8"?>
<!-- Generator: Adobe Illustrator 18.1.1, SVG Export Plug-In . SVG Version: 6.00 Build 0)  -->
<svg version="1.1" id="Layer_1" xmlns="http://www.w3.org/2000/svg" xmlns:xlink="http://www.w3.org/1999/xlink" x="0px" y="0px"
	 width="374.9px" height="293.2px" viewBox="0 0 374.9 293.2" enable-background="new 0 0 374.9 293.2" xml:space="preserve">
<g display="none">
	<path display="inline" fill="#868A8D" d="M184.6,184.5c-1.3,5.4-4.3,9.1-10.2,9.1c-6.5,0-11.1-4.8-11.1-15c0-9.5,4.1-15,11.1-15
		c5.4,0,8.6,3.1,9.8,8.5l-3,0.9c-1-4.1-2.9-6.6-7.3-6.6c-4.2,0-7.5,3.9-7.5,12.2c0,8.4,3.3,12.2,8.2,12.2c4.5,0,6.2-3.4,7.1-6.9
		L184.6,184.5z"/>
	<path display="inline" fill="#868A8D" d="M203.3,188.7c-1.4,2.4-3.3,4.9-8.1,4.9c-4.7,0-9.1-3.2-9.1-10.9c0-6.8,3.4-10.9,8.6-10.9
		c4.4,0,8,2.8,8,9.5v1.9h-13.6c0,4.6,2.7,7.8,6.2,7.8c2.6,0,4.6-1.4,5.8-3.5L203.3,188.7z M199.8,180.7c0-3.9-1.9-6.5-5-6.5
		c-3.5,0-5.4,2.6-5.6,6.5H199.8z"/>
	<path display="inline" fill="#868A8D" d="M208.8,172.2v2.8h0.1c1.7-1.9,3.8-3.2,6.2-3.2c3.1,0,6.1,1.6,6.1,6.1v15.3h-2.9V178
		c0-2.8-1.3-3.7-3.4-3.7c-2.2,0-4.7,1.8-6,3.2v15.7h-2.9v-21H208.8z"/>
	<path display="inline" fill="#868A8D" d="M226.5,172.2v-6.9h2.9v6.9h4.8v2.5h-4.8v14.9c0,1,0.7,1.5,2.4,1.5c1,0,1.8-0.1,2.6-0.2
		v2.4c-0.5,0.2-1.7,0.3-3.4,0.3c-3.1,0-4.5-0.8-4.5-3.5v-15.4H223v-2.5H226.5z"/>
	<path display="inline" fill="#868A8D" d="M237.7,172.2h2.9v4.2h0.1c1.6-2.9,3.3-4.5,6.8-4.5v2.9c-3.6,0.1-5.5,2.5-6.9,6.8v11.6
		h-2.9V172.2z"/>
	<path display="inline" fill="#868A8D" d="M265.5,188.7c-1.4,2.4-3.3,4.9-8.1,4.9c-4.7,0-9.1-3.2-9.1-10.9c0-6.8,3.4-10.9,8.6-10.9
		c4.4,0,8,2.8,8,9.5v1.9h-13.6c0,4.6,2.7,7.8,6.2,7.8c2.6,0,4.6-1.4,5.8-3.5L265.5,188.7z M262,180.7c0-3.9-1.9-6.5-5-6.5
		c-3.5,0-5.4,2.6-5.7,6.5H262z"/>
	<path display="inline" fill="#868A8D" d="M280.6,193.2v-18.5h-3.6v-2.5h3.6v-2.4c0-5,1.7-6.2,5.1-6.2c0.8,0,1.7,0.1,2.6,0.2v2.6
		c-0.7-0.1-1.5-0.3-2.1-0.3c-2,0-2.7,0.6-2.7,3v3.1h4.6v2.5h-4.6v18.5H280.6z"/>
	<path display="inline" fill="#868A8D" d="M297.1,193.6c-5.7,0-8.6-4.8-8.6-10.9c0-6.1,2.9-10.9,8.6-10.9c5.7,0,8.6,4.8,8.6,10.9
		C305.7,188.7,302.8,193.6,297.1,193.6z M297.1,174.3c-3.5,0-5.7,3-5.7,8.4c0,5.4,2.2,8.4,5.7,8.4s5.7-3,5.7-8.4
		C302.8,177.3,300.6,174.3,297.1,174.3z"/>
	<path display="inline" fill="#868A8D" d="M309.2,172.2h2.9v4.2h0.1c1.6-2.9,3.3-4.5,6.8-4.5v2.9c-3.6,0.1-5.5,2.5-6.9,6.8v11.6
		h-2.9V172.2z"/>
	<path display="inline" fill="#868A8D" d="M179.6,217.6c-0.7-2.8-3-5.1-6.8-5.1c-3.4,0-5.4,1.6-5.4,4.5c-0.1,6.4,16.4,4.8,16.4,14.1
		c0,4.2-2.4,8.6-9.8,8.6c-6.4,0-8.9-4.1-10.4-7.6l2.9-1c1.2,3.1,3.3,5.9,7.6,5.9c4.3,0,6.4-2.3,6.4-5.2c0-7.4-16.4-5.2-16.4-14.4
		c0-4.2,3.5-7.5,8.8-7.5c4.5,0,8.1,2.4,9.6,7.2L179.6,217.6z"/>
	<path display="inline" fill="#868A8D" d="M198.9,239.3v-2.8h-0.1c-1.7,1.9-3.8,3.2-6.2,3.2c-3.1,0-6.1-1.6-6.1-6.1v-15.3h2.9v15.2
		c0,2.8,1.3,3.7,3.4,3.7c2.2,0,4.7-1.8,6-3.2v-15.7h2.9v21H198.9z"/>
	<path display="inline" fill="#868A8D" d="M207,234c1.4,2,3.4,3.2,6,3.2c3.1,0,4.5-1.7,4.5-3.5c0-5.3-12.4-2.5-12.2-10.2
		c0.1-3.6,2.9-5.7,6.9-5.6c2.7,0,5.8,1.5,7.2,3.7l-2,1.8c-1.6-2-3.1-2.9-5.4-2.9c-2.5,0-3.8,1.3-3.8,3.1c0,4.6,12.2,2.2,12.2,10
		c0,4.1-3.6,6.1-7.3,6.1c-3.3,0-6.5-1.4-8.4-4L207,234z"/>
	<path display="inline" fill="#868A8D" d="M224.2,218.3v-6.9h2.9v6.9h4.8v2.5h-4.8v14.9c0,1,0.7,1.5,2.4,1.5c1,0,1.8-0.1,2.6-0.2
		v2.4c-0.5,0.2-1.7,0.3-3.4,0.3c-3.1,0-4.5-0.8-4.5-3.5v-15.4h-3.4v-2.5H224.2z"/>
	<path display="inline" fill="#868A8D" d="M234.2,222.3c1.3-2.4,3.9-4.4,7.9-4.4c3.6,0,7.3,1.7,7.3,6.3v10.6c0,2.3,0.2,3.4,0.5,4.5
		h-3l-0.3-2.9c-1.5,1.6-3.8,3.3-6.9,3.3c-3.2,0-6-1.9-6-5.8c0-4.6,3.5-6.9,12.8-8.6v-1.1c0-2.8-1.8-3.8-4.3-3.8
		c-3.2,0-4.8,1.9-5.4,3.3L234.2,222.3z M246.4,227.9c-6.7,1.2-9.9,3.1-9.9,6c0,1.9,1.9,3.2,3.5,3.2c2.1,0,4.8-1.5,6.5-3.5V227.9z"/>
	<path display="inline" fill="#868A8D" d="M256.7,209.8v3.5h-2.9v-3.5H256.7z M253.8,218.3h2.9v21h-2.9V218.3z"/>
	<path display="inline" fill="#868A8D" d="M264.9,218.3v2.8h0.1c1.7-1.9,3.8-3.2,6.2-3.2c3.1,0,6.1,1.6,6.1,6.1v15.3h-2.9v-15.2
		c0-2.8-1.3-3.7-3.4-3.7c-2.2,0-4.7,1.8-6,3.2v15.7H262v-21H264.9z"/>
	<path display="inline" fill="#868A8D" d="M281.5,222.3c1.3-2.4,3.9-4.4,7.9-4.4c3.6,0,7.3,1.7,7.3,6.3v10.6c0,2.3,0.2,3.4,0.5,4.5
		h-3l-0.3-2.9c-1.5,1.6-3.8,3.3-6.9,3.3c-3.2,0-6-1.9-6-5.8c0-4.6,3.5-6.9,12.8-8.6v-1.1c0-2.8-1.8-3.8-4.3-3.8
		c-3.2,0-4.8,1.9-5.4,3.3L281.5,222.3z M293.7,227.9c-6.7,1.2-9.9,3.1-9.9,6c0,1.9,1.9,3.2,3.5,3.2c2.1,0,4.8-1.5,6.5-3.5V227.9z"/>
	<path display="inline" fill="#868A8D" d="M304.2,210.2v10.2l0.2-0.1c1.6-1.3,3.6-2.3,5.5-2.3c3.6,0,8.4,2.7,8.4,10.9
		c0,8.4-4.9,10.9-8.6,10.9c-2.5,0-4.4-1-6.1-2.6l-0.5,2.2h-2c0.2-1.5,0.2-3.1,0.2-4.6v-24.5H304.2z M304.2,234.4
		c2.1,2,3.4,2.8,5.3,2.8c3.6,0,5.9-2.9,5.9-8.2c0-6.3-2.5-8.6-5.9-8.6c-1.7,0-3.7,1.2-5.3,2.9V234.4z"/>
	<path display="inline" fill="#868A8D" d="M325.6,209.8v3.5h-2.9v-3.5H325.6z M322.7,218.3h2.9v21h-2.9V218.3z"/>
	<path display="inline" fill="#868A8D" d="M334.4,210.2v29.1h-2.9v-29.1H334.4z"/>
	<path display="inline" fill="#868A8D" d="M342.4,209.8v3.5h-2.9v-3.5H342.4z M339.5,218.3h2.9v21h-2.9V218.3z"/>
	<path display="inline" fill="#868A8D" d="M349.1,218.3v-6.9h2.9v6.9h4.8v2.5H352v14.9c0,1,0.7,1.5,2.4,1.5c1,0,1.8-0.1,2.6-0.2v2.4
		c-0.5,0.2-1.7,0.3-3.4,0.3c-3.1,0-4.5-0.8-4.5-3.5v-15.4h-3.4v-2.5H349.1z"/>
	<path display="inline" fill="#868A8D" d="M374.9,218.3l-7.4,22.8c-1.5,4.7-4.3,5.9-7.1,5.9c-1,0-1.5-0.2-2.1-0.2v-2.4
		c0.4,0,0.9,0.1,1.6,0.1c1.8,0,4.5-0.4,5.5-5l-7.3-21.2h3.1l5.7,16h0.1l4.9-16H374.9z"/>
	<path display="inline" fill="#868A8D" d="M165.9,285.4v-29.1h3.2v26.4h13.8v2.7H165.9z"/>
	<path display="inline" fill="#868A8D" d="M200.3,280.9c-1.4,2.4-3.3,4.9-8.1,4.9c-4.7,0-9.1-3.2-9.1-10.9c0-6.8,3.4-10.9,8.6-10.9
		c4.4,0,8,2.8,8,9.5v1.9H186c0,4.6,2.7,7.8,6.2,7.8c2.6,0,4.6-1.4,5.8-3.6L200.3,280.9z M196.8,273c0-3.9-1.9-6.5-5-6.5
		c-3.5,0-5.4,2.6-5.7,6.5H196.8z"/>
	<path display="inline" fill="#868A8D" d="M203.2,268.5c1.3-2.4,3.9-4.4,7.9-4.4c3.6,0,7.3,1.7,7.3,6.3v10.6c0,2.3,0.2,3.4,0.5,4.5
		h-3l-0.3-2.9c-1.5,1.6-3.8,3.3-6.9,3.3c-3.2,0-6-1.9-6-5.8c0-4.6,3.5-6.9,12.8-8.6v-1.1c0-2.8-1.8-3.8-4.3-3.8
		c-3.2,0-4.8,1.9-5.4,3.3L203.2,268.5z M215.4,274.1c-6.7,1.2-9.9,3.1-9.9,6c0,1.9,1.9,3.2,3.5,3.2c2.1,0,4.8-1.5,6.5-3.5V274.1z"/>
	<path display="inline" fill="#868A8D" d="M238.3,256.3v24.5c0,1.5-0.1,3.1,0.2,4.6h-2.7l-0.4-2.1c-1,1.3-3,2.5-5.5,2.5
		c-3.7,0-8.6-2.5-8.6-10.9c0-8.2,4.9-10.9,8.4-10.9c2,0,3.9,1,5.5,2.3l0.2,0.1v-10.2H238.3z M235.4,269.4c-1.6-1.7-3.6-2.9-5.3-2.9
		c-3.4,0-5.9,2.2-5.9,8.6c0,5.3,2.3,8.2,5.9,8.2c1.9,0,3.2-0.8,5.3-2.8V269.4z"/>
	<path display="inline" fill="#868A8D" d="M258.2,280.9c-1.4,2.4-3.3,4.9-8.1,4.9c-4.7,0-9.1-3.2-9.1-10.9c0-6.8,3.4-10.9,8.6-10.9
		c4.4,0,8,2.8,8,9.5v1.9H244c0,4.6,2.7,7.8,6.2,7.8c2.6,0,4.6-1.4,5.8-3.6L258.2,280.9z M254.7,273c0-3.9-1.9-6.5-5-6.5
		c-3.5,0-5.4,2.6-5.6,6.5H254.7z"/>
	<path display="inline" fill="#868A8D" d="M260.8,264.4h2.9v4.2h0.1c1.6-2.9,3.3-4.5,6.8-4.5v2.9c-3.6,0.1-5.5,2.5-6.9,6.8v11.6
		h-2.9V264.4z"/>
	<path display="inline" fill="#868A8D" d="M273.9,280.1c1.4,2,3.4,3.2,6,3.2c3.1,0,4.5-1.7,4.5-3.5c0-5.3-12.4-2.5-12.2-10.2
		c0.1-3.6,2.9-5.7,6.9-5.6c2.7,0,5.8,1.5,7.2,3.7l-2,1.8c-1.6-2-3.1-2.9-5.4-2.9c-2.5,0-3.8,1.3-3.8,3.1c0,4.6,12.2,2.2,12.2,10
		c0,4.1-3.6,6.1-7.3,6.1c-3.3,0-6.5-1.4-8.4-4L273.9,280.1z"/>
	<path display="inline" fill="#868A8D" d="M293.4,256.3v11h0.1c1.7-1.9,3.8-3.2,6.2-3.2c3.1,0,6.1,1.6,6.1,6.1v15.3h-2.9v-15.2
		c0-2.8-1.3-3.7-3.4-3.7c-2.2,0-4.7,1.8-6,3.2v15.7h-2.9v-29.1H293.4z"/>
	<path display="inline" fill="#868A8D" d="M313.2,255.9v3.5h-2.9v-3.5H313.2z M310.3,264.4h2.9v21h-2.9V264.4z"/>
	<path display="inline" fill="#868A8D" d="M317.7,293.2v-28.7h2.9v2.5h0.1c1.1-1.6,3.4-2.9,5.4-2.9c3.7,0,8.6,2.5,8.6,10.9
		c0,8.2-4.9,10.9-8.4,10.9c-2,0-3.9-1-5.5-2.3l-0.2-0.1v9.8H317.7z M320.6,280.4c1.6,1.7,3.6,2.9,5.3,2.9c3.4,0,5.9-2.2,5.9-8.6
		c0-5.3-2.3-8.2-5.9-8.2c-1.9,0-3.2,0.8-5.3,2.8V280.4z"/>
</g>
<g>
	<path fill="#D4E48F" d="M77.8,61.5L43.4,6.9c-1.3-2.1-4.1-2.7-6.2-1.4l-5.8,3.7c-2.1,1.3-2.7,4.1-1.4,6.2l28.6,45.4l16.5,6.6
		L77.8,61.5z"/>
	<path fill="#D4E48F" d="M80,94.8l46.6,74c1.3,2.1,4.1,2.7,6.2,1.4l5.8-3.7c2.1-1.3,2.7-4.1,1.4-6.2L97.9,93.4l-14.6-5.8L80,94.8z"
		/>
	<path fill="#B5E0DC" d="M102.3,46L119,9.2c1-2.2,0-4.9-2.2-5.9l-6.2-2.8c-2.2-1-4.9,0-5.9,2.2L77.8,61.5l2.7,4.3L102.3,46z"/>
	<path fill="#B5E0DC" d="M55.9,109.4L23,181.6c-1,2.2,0,4.9,2.2,5.9l6.2,2.8c2.2,1,4.9,0,5.9-2.2L80,94.8l-2.9-4.6L55.9,109.4z"/>
	<polygon fill="#9BCF85" points="77.6,68.3 80.5,65.8 77.8,61.5 75.1,67.3 	"/>
	<polygon fill="#9BCF85" points="81,86.7 77.1,90.2 80,94.8 83.3,87.6 	"/>
	<path fill="#F37043" d="M58.6,60.7L8.7,40.9c-2.3-0.9-4.9,0.2-5.8,2.5l-2.5,6.4c-0.9,2.3,0.2,4.9,2.5,5.8l61.8,24.6l4-3.6
		L58.6,60.7z"/>
	<path fill="#F37043" d="M209.4,120.8L94,74.8l-5,4.5l8.9,14.1l105.6,42.1c2.3,0.9,4.9-0.2,5.8-2.5l2.5-6.4
		C212.8,124.3,211.7,121.7,209.4,120.8z"/>
	<polygon fill="#CE6B38" points="72.6,72.9 75.1,67.3 58.6,60.7 68.6,76.6 	"/>
	<polygon fill="#CE6B38" points="85.6,82.5 83.3,87.6 97.9,93.4 89,79.4 	"/>
	<polygon fill="#A3653C" points="75.1,67.3 72.6,72.9 77.6,68.3 	"/>
	<polygon fill="#A3653C" points="83.3,87.6 85.6,82.5 81,86.7 	"/>
	<path fill="#00849C" d="M94,74.8l48.8-44.3c1.8-1.7,2-4.5,0.3-6.3l-4.6-5.1c-1.7-1.8-4.5-2-6.3-0.3L102.3,46L89.9,73.2L94,74.8z"/>
	<path fill="#00849C" d="M64.6,80.2L15.2,125c-1.8,1.7-2,4.5-0.3,6.3l4.6,5.1c1.7,1.8,4.5,2,6.3,0.3l30.1-27.3l12.6-27.7L64.6,80.2z
		"/>
	<polygon fill="#00848E" points="72.9,83.5 68.6,81.8 55.9,109.4 77.1,90.2 	"/>
	<polygon fill="#00848E" points="83.6,70.7 89.9,73.2 102.3,46 80.5,65.8 	"/>
	<polygon fill="#008266" points="77.1,90.2 81,86.7 72.9,83.5 	"/>
	<polygon fill="#008266" points="80.5,65.8 77.6,68.3 83.6,70.7 	"/>
	<polygon fill="#244E47" points="69.9,78.7 68.6,76.6 64.6,80.2 68.6,81.8 72.9,83.5 	"/>
	<polygon fill="#244E47" points="89.9,73.2 83.6,70.7 87.9,77.5 89,79.4 94,74.8 	"/>
	<polygon fill="#254E40" points="87.9,77.5 83.6,70.7 77.6,68.3 72.6,72.9 68.6,76.6 69.9,78.7 72.9,83.5 81,86.7 85.6,82.5 
		89,79.4 	"/>
</g>
<g>
	<path fill="#868A8D" d="M184.6,184.5c-1.3,5.4-4.3,9.1-10.2,9.1c-6.5,0-11.1-4.8-11.1-15c0-9.5,4.1-15,11.1-15
		c5.4,0,8.6,3.1,9.8,8.5l-3,0.9c-1-4.1-2.9-6.6-7.3-6.6c-4.2,0-7.5,3.9-7.5,12.2c0,8.4,3.3,12.2,8.2,12.2c4.5,0,6.2-3.4,7.1-6.9
		L184.6,184.5z"/>
	<path fill="#868A8D" d="M203.3,188.7c-1.4,2.4-3.3,4.9-8.1,4.9c-4.7,0-9.1-3.2-9.1-10.9c0-6.8,3.4-10.9,8.6-10.9c4.4,0,8,2.8,8,9.5
		v1.9h-13.6c0,4.6,2.7,7.8,6.2,7.8c2.6,0,4.6-1.4,5.8-3.5L203.3,188.7z M199.8,180.7c0-3.9-1.9-6.5-5-6.5c-3.5,0-5.4,2.6-5.6,6.5
		H199.8z"/>
	<path fill="#868A8D" d="M208.8,172.2v2.8h0.1c1.7-1.9,3.8-3.2,6.2-3.2c3.1,0,6.1,1.6,6.1,6.1v15.3h-2.9V178c0-2.8-1.3-3.7-3.4-3.7
		c-2.2,0-4.7,1.8-6,3.2v15.7h-2.9v-21H208.8z"/>
	<path fill="#868A8D" d="M226.5,172.2v-6.9h2.9v6.9h4.8v2.5h-4.8v14.9c0,1,0.7,1.5,2.4,1.5c1,0,1.8-0.1,2.6-0.2v2.4
		c-0.5,0.2-1.7,0.3-3.4,0.3c-3.1,0-4.5-0.8-4.5-3.5v-15.4H223v-2.5H226.5z"/>
	<path fill="#868A8D" d="M237.7,172.2h2.9v4.2h0.1c1.6-2.9,3.3-4.5,6.8-4.5v2.9c-3.6,0.1-5.5,2.5-6.9,6.8v11.6h-2.9V172.2z"/>
	<path fill="#868A8D" d="M265.5,188.7c-1.4,2.4-3.3,4.9-8.1,4.9c-4.7,0-9.1-3.2-9.1-10.9c0-6.8,3.4-10.9,8.6-10.9c4.4,0,8,2.8,8,9.5
		v1.9h-13.6c0,4.6,2.7,7.8,6.2,7.8c2.6,0,4.6-1.4,5.8-3.5L265.5,188.7z M262,180.7c0-3.9-1.9-6.5-5-6.5c-3.5,0-5.4,2.6-5.7,6.5H262z
		"/>
	<path fill="#868A8D" d="M280.6,193.2v-18.5h-3.6v-2.5h3.6v-2.4c0-5,1.7-6.2,5.1-6.2c0.8,0,1.7,0.1,2.6,0.2v2.6
		c-0.7-0.1-1.5-0.3-2.1-0.3c-2,0-2.7,0.6-2.7,3v3.1h4.6v2.5h-4.6v18.5H280.6z"/>
	<path fill="#868A8D" d="M297.1,193.6c-5.7,0-8.6-4.8-8.6-10.9c0-6.1,2.9-10.9,8.6-10.9c5.7,0,8.6,4.8,8.6,10.9
		C305.7,188.7,302.8,193.6,297.1,193.6z M297.1,174.3c-3.5,0-5.7,3-5.7,8.4c0,5.4,2.2,8.4,5.7,8.4s5.7-3,5.7-8.4
		C302.8,177.3,300.6,174.3,297.1,174.3z"/>
	<path fill="#868A8D" d="M309.2,172.2h2.9v4.2h0.1c1.6-2.9,3.3-4.5,6.8-4.5v2.9c-3.6,0.1-5.5,2.5-6.9,6.8v11.6h-2.9V172.2z"/>
	<path fill="#868A8D" d="M179.6,217.6c-0.7-2.8-3-5.1-6.8-5.1c-3.4,0-5.4,1.6-5.4,4.5c-0.1,6.4,16.4,4.8,16.4,14.1
		c0,4.2-2.4,8.6-9.8,8.6c-6.4,0-8.9-4.1-10.4-7.6l2.9-1c1.2,3.1,3.3,5.9,7.6,5.9c4.3,0,6.4-2.3,6.4-5.2c0-7.4-16.4-5.2-16.4-14.4
		c0-4.2,3.5-7.5,8.8-7.5c4.5,0,8.1,2.4,9.6,7.2L179.6,217.6z"/>
	<path fill="#868A8D" d="M198.9,239.3v-2.8h-0.1c-1.7,1.9-3.8,3.2-6.2,3.2c-3.1,0-6.1-1.6-6.1-6.1v-15.3h2.9v15.2
		c0,2.8,1.3,3.7,3.4,3.7c2.2,0,4.7-1.8,6-3.2v-15.7h2.9v21H198.9z"/>
	<path fill="#868A8D" d="M207,234c1.4,2,3.4,3.2,6,3.2c3.1,0,4.5-1.7,4.5-3.5c0-5.3-12.4-2.5-12.2-10.2c0.1-3.6,2.9-5.7,6.9-5.6
		c2.7,0,5.8,1.5,7.2,3.7l-2,1.8c-1.6-2-3.1-2.9-5.4-2.9c-2.5,0-3.8,1.3-3.8,3.1c0,4.6,12.2,2.2,12.2,10c0,4.1-3.6,6.1-7.3,6.1
		c-3.3,0-6.5-1.4-8.4-4L207,234z"/>
	<path fill="#868A8D" d="M224.2,218.3v-6.9h2.9v6.9h4.8v2.5h-4.8v14.9c0,1,0.7,1.5,2.4,1.5c1,0,1.8-0.1,2.6-0.2v2.4
		c-0.5,0.2-1.7,0.3-3.4,0.3c-3.1,0-4.5-0.8-4.5-3.5v-15.4h-3.4v-2.5H224.2z"/>
	<path fill="#868A8D" d="M234.2,222.3c1.3-2.4,3.9-4.4,7.9-4.4c3.6,0,7.3,1.7,7.3,6.3v10.6c0,2.3,0.2,3.4,0.5,4.5h-3l-0.3-2.9
		c-1.5,1.6-3.8,3.3-6.9,3.3c-3.2,0-6-1.9-6-5.8c0-4.6,3.5-6.9,12.8-8.6v-1.1c0-2.8-1.8-3.8-4.3-3.8c-3.2,0-4.8,1.9-5.4,3.3
		L234.2,222.3z M246.4,227.9c-6.7,1.2-9.9,3.1-9.9,6c0,1.9,1.9,3.2,3.5,3.2c2.1,0,4.8-1.5,6.5-3.5V227.9z"/>
	<path fill="#868A8D" d="M256.7,209.8v3.5h-2.9v-3.5H256.7z M253.8,218.3h2.9v21h-2.9V218.3z"/>
	<path fill="#868A8D" d="M264.9,218.3v2.8h0.1c1.7-1.9,3.8-3.2,6.2-3.2c3.1,0,6.1,1.6,6.1,6.1v15.3h-2.9v-15.2
		c0-2.8-1.3-3.7-3.4-3.7c-2.2,0-4.7,1.8-6,3.2v15.7H262v-21H264.9z"/>
	<path fill="#868A8D" d="M281.5,222.3c1.3-2.4,3.9-4.4,7.9-4.4c3.6,0,7.3,1.7,7.3,6.3v10.6c0,2.3,0.2,3.4,0.5,4.5h-3l-0.3-2.9
		c-1.5,1.6-3.8,3.3-6.9,3.3c-3.2,0-6-1.9-6-5.8c0-4.6,3.5-6.9,12.8-8.6v-1.1c0-2.8-1.8-3.8-4.3-3.8c-3.2,0-4.8,1.9-5.4,3.3
		L281.5,222.3z M293.7,227.9c-6.7,1.2-9.9,3.1-9.9,6c0,1.9,1.9,3.2,3.5,3.2c2.1,0,4.8-1.5,6.5-3.5V227.9z"/>
	<path fill="#868A8D" d="M304.2,210.2v10.2l0.2-0.1c1.6-1.3,3.6-2.3,5.5-2.3c3.6,0,8.4,2.7,8.4,10.9c0,8.4-4.9,10.9-8.6,10.9
		c-2.5,0-4.4-1-6.1-2.6l-0.5,2.2h-2c0.2-1.5,0.2-3.1,0.2-4.6v-24.5H304.2z M304.2,234.4c2.1,2,3.4,2.8,5.3,2.8
		c3.6,0,5.9-2.9,5.9-8.2c0-6.3-2.5-8.6-5.9-8.6c-1.7,0-3.7,1.2-5.3,2.9V234.4z"/>
	<path fill="#868A8D" d="M325.6,209.8v3.5h-2.9v-3.5H325.6z M322.7,218.3h2.9v21h-2.9V218.3z"/>
	<path fill="#868A8D" d="M334.4,210.2v29.1h-2.9v-29.1H334.4z"/>
	<path fill="#868A8D" d="M342.4,209.8v3.5h-2.9v-3.5H342.4z M339.5,218.3h2.9v21h-2.9V218.3z"/>
	<path fill="#868A8D" d="M349.1,218.3v-6.9h2.9v6.9h4.8v2.5H352v14.9c0,1,0.7,1.5,2.4,1.5c1,0,1.8-0.1,2.6-0.2v2.4
		c-0.5,0.2-1.7,0.3-3.4,0.3c-3.1,0-4.5-0.8-4.5-3.5v-15.4h-3.4v-2.5H349.1z"/>
	<path fill="#868A8D" d="M374.9,218.3l-7.4,22.8c-1.5,4.7-4.3,5.9-7.1,5.9c-1,0-1.5-0.2-2.1-0.2v-2.4c0.4,0,0.9,0.1,1.6,0.1
		c1.8,0,4.5-0.4,5.5-5l-7.3-21.2h3.1l5.7,16h0.1l4.9-16H374.9z"/>
	<path fill="#868A8D" d="M165.9,285.4v-29.1h3.2v26.4h13.8v2.7H165.9z"/>
	<path fill="#868A8D" d="M200.3,280.9c-1.4,2.4-3.3,4.9-8.1,4.9c-4.7,0-9.1-3.2-9.1-10.9c0-6.8,3.4-10.9,8.6-10.9c4.4,0,8,2.8,8,9.5
		v1.9H186c0,4.6,2.7,7.8,6.2,7.8c2.6,0,4.6-1.4,5.8-3.6L200.3,280.9z M196.8,273c0-3.9-1.9-6.5-5-6.5c-3.5,0-5.4,2.6-5.7,6.5H196.8z
		"/>
	<path fill="#868A8D" d="M203.2,268.5c1.3-2.4,3.9-4.4,7.9-4.4c3.6,0,7.3,1.7,7.3,6.3v10.6c0,2.3,0.2,3.4,0.5,4.5h-3l-0.3-2.9
		c-1.5,1.6-3.8,3.3-6.9,3.3c-3.2,0-6-1.9-6-5.8c0-4.6,3.5-6.9,12.8-8.6v-1.1c0-2.8-1.8-3.8-4.3-3.8c-3.2,0-4.8,1.9-5.4,3.3
		L203.2,268.5z M215.4,274.1c-6.7,1.2-9.9,3.1-9.9,6c0,1.9,1.9,3.2,3.5,3.2c2.1,0,4.8-1.5,6.5-3.5V274.1z"/>
	<path fill="#868A8D" d="M238.3,256.3v24.5c0,1.5-0.1,3.1,0.2,4.6h-2.7l-0.4-2.1c-1,1.3-3,2.5-5.5,2.5c-3.7,0-8.6-2.5-8.6-10.9
		c0-8.2,4.9-10.9,8.4-10.9c2,0,3.9,1,5.5,2.3l0.2,0.1v-10.2H238.3z M235.4,269.4c-1.6-1.7-3.6-2.9-5.3-2.9c-3.4,0-5.9,2.2-5.9,8.6
		c0,5.3,2.3,8.2,5.9,8.2c1.9,0,3.2-0.8,5.3-2.8V269.4z"/>
	<path fill="#868A8D" d="M258.2,280.9c-1.4,2.4-3.3,4.9-8.1,4.9c-4.7,0-9.1-3.2-9.1-10.9c0-6.8,3.4-10.9,8.6-10.9c4.4,0,8,2.8,8,9.5
		v1.9H244c0,4.6,2.7,7.8,6.2,7.8c2.6,0,4.6-1.4,5.8-3.6L258.2,280.9z M254.7,273c0-3.9-1.9-6.5-5-6.5c-3.5,0-5.4,2.6-5.6,6.5H254.7z
		"/>
	<path fill="#868A8D" d="M260.8,264.4h2.9v4.2h0.1c1.6-2.9,3.3-4.5,6.8-4.5v2.9c-3.6,0.1-5.5,2.5-6.9,6.8v11.6h-2.9V264.4z"/>
	<path fill="#868A8D" d="M273.9,280.1c1.4,2,3.4,3.2,6,3.2c3.1,0,4.5-1.7,4.5-3.5c0-5.3-12.4-2.5-12.2-10.2c0.1-3.6,2.9-5.7,6.9-5.6
		c2.7,0,5.8,1.5,7.2,3.7l-2,1.8c-1.6-2-3.1-2.9-5.4-2.9c-2.5,0-3.8,1.3-3.8,3.1c0,4.6,12.2,2.2,12.2,10c0,4.1-3.6,6.1-7.3,6.1
		c-3.3,0-6.5-1.4-8.4-4L273.9,280.1z"/>
	<path fill="#868A8D" d="M293.4,256.3v11h0.1c1.7-1.9,3.8-3.2,6.2-3.2c3.1,0,6.1,1.6,6.1,6.1v15.3h-2.9v-15.2c0-2.8-1.3-3.7-3.4-3.7
		c-2.2,0-4.7,1.8-6,3.2v15.7h-2.9v-29.1H293.4z"/>
	<path fill="#868A8D" d="M313.2,255.9v3.5h-2.9v-3.5H313.2z M310.3,264.4h2.9v21h-2.9V264.4z"/>
	<path fill="#868A8D" d="M317.7,293.2v-28.7h2.9v2.5h0.1c1.1-1.6,3.4-2.9,5.4-2.9c3.7,0,8.6,2.5,8.6,10.9c0,8.2-4.9,10.9-8.4,10.9
		c-2,0-3.9-1-5.5-2.3l-0.2-0.1v9.8H317.7z M320.6,280.4c1.6,1.7,3.6,2.9,5.3,2.9c3.4,0,5.9-2.2,5.9-8.6c0-5.3-2.3-8.2-5.9-8.2
		c-1.9,0-3.2,0.8-5.3,2.8V280.4z"/>
</g>
<g>
	<path fill="#D4E48F" d="M77.8,61.5L43.4,6.9c-1.3-2.1-4.1-2.7-6.2-1.4l-5.8,3.7c-2.1,1.3-2.7,4.1-1.4,6.2l28.6,45.4l16.5,6.6
		L77.8,61.5z"/>
	<path fill="#D4E48F" d="M80,94.8l46.6,74c1.3,2.1,4.1,2.7,6.2,1.4l5.8-3.7c2.1-1.3,2.7-4.1,1.4-6.2L97.9,93.4l-14.6-5.8L80,94.8z"
		/>
	<path fill="#B5E0DC" d="M102.3,46L119,9.2c1-2.2,0-4.9-2.2-5.9l-6.2-2.8c-2.2-1-4.9,0-5.9,2.2L77.8,61.5l2.7,4.3L102.3,46z"/>
	<path fill="#B5E0DC" d="M55.9,109.4L23,181.6c-1,2.2,0,4.9,2.2,5.9l6.2,2.8c2.2,1,4.9,0,5.9-2.2L80,94.8l-2.9-4.6L55.9,109.4z"/>
	<polygon fill="#9BCF85" points="77.6,68.3 80.5,65.8 77.8,61.5 75.1,67.3 	"/>
	<polygon fill="#9BCF85" points="81,86.7 77.1,90.2 80,94.8 83.3,87.6 	"/>
	<path fill="#F37043" d="M58.6,60.7L8.7,40.9c-2.3-0.9-4.9,0.2-5.8,2.5l-2.5,6.4c-0.9,2.3,0.2,4.9,2.5,5.8l61.8,24.6l4-3.6
		L58.6,60.7z"/>
	<path fill="#F37043" d="M209.4,120.8L94,74.8l-5,4.5l8.9,14.1l105.6,42.1c2.3,0.9,4.9-0.2,5.8-2.5l2.5-6.4
		C212.8,124.3,211.7,121.7,209.4,120.8z"/>
	<polygon fill="#CE6B38" points="72.6,72.9 75.1,67.3 58.6,60.7 68.6,76.6 	"/>
	<polygon fill="#CE6B38" points="85.6,82.5 83.3,87.6 97.9,93.4 89,79.4 	"/>
	<polygon fill="#A3653C" points="75.1,67.3 72.6,72.9 77.6,68.3 	"/>
	<polygon fill="#A3653C" points="83.3,87.6 85.6,82.5 81,86.7 	"/>
	<path fill="#00849C" d="M94,74.8l48.8-44.3c1.8-1.7,2-4.5,0.3-6.3l-4.6-5.1c-1.7-1.8-4.5-2-6.3-0.3L102.3,46L89.9,73.2L94,74.8z"/>
	<path fill="#00849C" d="M64.6,80.2L15.2,125c-1.8,1.7-2,4.5-0.3,6.3l4.6,5.1c1.7,1.8,4.5,2,6.3,0.3l30.1-27.3l12.6-27.7L64.6,80.2z
		"/>
	<polygon fill="#00848E" points="72.9,83.5 68.6,81.8 55.9,109.4 77.1,90.2 	"/>
	<polygon fill="#00848E" points="83.6,70.7 89.9,73.2 102.3,46 80.5,65.8 	"/>
	<polygon fill="#008266" points="77.1,90.2 81,86.7 72.9,83.5 	"/>
	<polygon fill="#008266" points="80.5,65.8 77.6,68.3 83.6,70.7 	"/>
	<polygon fill="#244E47" points="69.9,78.7 68.6,76.6 64.6,80.2 68.6,81.8 72.9,83.5 	"/>
	<polygon fill="#244E47" points="89.9,73.2 83.6,70.7 87.9,77.5 89,79.4 94,74.8 	"/>
	<polygon fill="#254E40" points="87.9,77.5 83.6,70.7 77.6,68.3 72.6,72.9 68.6,76.6 69.9,78.7 72.9,83.5 81,86.7 85.6,82.5 
		89,79.4 	"/>
</g>
</svg>
